<?xml version="1.0" encoding="UTF-8" standalone="no"?>
<!-- Created with Inkscape (http://www.inkscape.org/) -->

<svg
   version="1.1"
   id="svg59"
   width="1002.2656"
   height="870.81702"
   viewBox="0 0 1002.2657 870.81701"
   xmlns="http://www.w3.org/2000/svg"
   xmlns:svg="http://www.w3.org/2000/svg">
  <defs
     id="defs63" />
  <g
     id="g65"
     transform="translate(-74.337873,-31.767479)">
    <path
       style="fill:#000000;stroke-width:0.32"
       d="m 361.41676,902.50597 c 0,-0.0792 0.7329,-1.84883 1.62867,-3.93245 1.96839,-4.57849 16.91773,-40.47171 18.87076,-45.30838 l 1.38902,-3.44 h 2.53309 c 2.25949,0 2.516,0.0605 2.37472,0.56 -0.0871,0.308 -4.26867,10.568 -9.29239,22.8 -5.02371,12.232 -9.76483,23.824 -10.53587,25.76 l -1.40189,3.52 -2.78307,0.0924 c -1.53066,0.0508 -2.78304,0.0275 -2.78304,-0.0516 z M 142.53674,889.46738 c -1.144,-0.15226 -2.8,-0.45805 -3.68,-0.67952 l -1.6,-0.40272 -0.32,-4.73658 c -0.28109,-4.1607 -0.26164,-4.71805 0.16,-4.58419 0.264,0.0838 1.416,0.54554 2.56,1.02598 1.34951,0.56682 2.86668,0.9233 4.32,1.01504 1.96674,0.1242 2.37663,0.0485 3.36,-0.62041 0.63055,-0.4289 1.16709,-1.08999 1.22775,-1.51277 0.25515,-1.77814 -0.29417,-2.77446 -3.5488,-6.43642 -1.80342,-2.02912 -3.76722,-4.30745 -4.36398,-5.06291 -4.00299,-5.06745 -3.30939,-12.85709 1.45693,-16.3623 2.18672,-1.60813 3.70465,-2.00397 7.6281,-1.98915 2.9324,0.0109 7.60005,0.63625 7.97652,1.06841 0.0552,0.0634 0.20072,2.15712 0.32331,4.65267 l 0.22287,4.53738 -1.70135,-0.64685 c -5.99053,-2.27753 -10.45165,-0.35408 -8.39647,3.62023 0.27769,0.53696 2.04169,2.60492 3.92,4.59548 5.41031,5.73354 6.81232,8.77991 6.11007,13.27639 -1.13984,7.29824 -6.49708,10.46099 -15.65495,9.24224 z M 338.934,889.32527 c -2.42788,-0.58832 -3.54127,-1.19248 -5.39738,-2.92864 -2.03192,-1.90061 -2.83986,-4.02058 -2.83986,-7.45149 0,-4.3049 1.81783,-7.75863 4.91544,-9.33891 l 1.27911,-0.65255 -1.35119,-1.12237 c -0.74316,-0.61731 -1.74082,-1.86121 -2.21703,-2.76428 -0.77454,-1.46877 -0.86562,-1.9793 -0.86376,-4.84189 0.003,-4.04592 0.7183,-5.83853 3.2573,-8.15904 2.22251,-2.03123 4.84707,-2.92167 8.74013,-2.96525 6.29744,-0.0705 10.21507,2.70432 11.20186,7.93418 0.79702,4.22393 -0.2954,7.85968 -3.11719,10.37472 -1.66067,1.48012 -1.70774,1.56422 -0.99392,1.77654 3.60704,1.0729 5.66115,5.45235 4.78368,10.19901 -0.75347,4.07593 -2.90729,7.20368 -6.07254,8.81846 -3.01236,1.5368 -7.6966,2.00067 -11.32465,1.12151 z m 6.66836,-8.10356 c 1.43945,-0.87776 2.15885,-2.61283 1.97958,-4.77449 -0.12339,-1.48787 -0.30822,-1.91386 -1.16102,-2.67584 -1.82931,-1.6345 -5.21288,-1.05789 -6.31659,1.07645 -0.68601,1.32662 -0.69495,3.67584 -0.0189,4.96918 1.00702,1.92653 3.58484,2.58291 5.51693,1.4047 z m 1.0144,-17.47692 c 0.90973,-0.97117 1.04,-1.32823 1.04,-2.8504 0,-2.13175 -1.01367,-3.57024 -2.74461,-3.89498 -2.46808,-0.46301 -4.29539,1.38138 -4.29539,4.33549 0,1.48893 0.12482,1.79907 1.12767,2.80192 1.03732,1.03731 1.23602,1.11126 2.48001,0.92294 0.97302,-0.14733 1.64403,-0.51613 2.39232,-1.31497 z m 65.68,25.74656 c -3.9528,-0.7096 -6.55449,-2.09434 -9.20966,-4.90176 -3.19187,-3.37495 -4.56966,-7.55997 -4.59734,-13.96445 -0.0317,-7.33805 1.79657,-12.41991 5.92889,-16.48 2.47063,-2.42746 4.56791,-3.62083 7.87811,-4.48282 2.43232,-0.63337 7.18481,-0.71334 10.24001,-0.17232 3.47315,0.61504 3.15417,0.11146 3.26332,5.15194 0.0532,2.45533 -0.0266,4.464 -0.17715,4.46371 -0.15059,-2.9e-4 -1.15859,-0.23827 -2.24,-0.52883 -1.08137,-0.29059 -3.19017,-0.53738 -4.68617,-0.54842 -2.34458,-0.0173 -2.94561,0.0974 -4.35444,0.83063 -2.13318,1.1103 -4.39331,3.65606 -5.27501,5.9416 -0.86176,2.23392 -1.17728,6.77718 -0.63798,9.18697 0.7801,3.48576 3.3879,6.21331 6.57264,6.87447 1.95363,0.40556 6.07139,0.008 8.59552,-0.8305 0.84739,-0.28141 1.5825,-0.46096 1.63357,-0.39904 0.17066,0.20698 -0.9809,8.90586 -1.20915,9.13411 -0.74083,0.74083 -8.845,1.24176 -11.72516,0.72471 z m 320.43098,0.006 c -6.80544,-1.22896 -11.72845,-6.03888 -13.25693,-12.95248 -0.68967,-3.11936 -0.53415,-10.36583 0.28704,-13.37565 1.84397,-6.75859 6.08675,-11.35559 12.21622,-13.23607 2.23738,-0.68643 3.31114,-0.82864 6.08,-0.80524 1.84951,0.0157 4.37072,0.22278 5.60272,0.46035 l 2.24,0.43197 0.28055,4.39536 c 0.1543,2.41744 0.20624,4.46966 0.11542,4.56051 -0.0908,0.0908 -1.00909,-0.0523 -2.04057,-0.31818 -4.81124,-1.23993 -8.18464,-0.91184 -10.90791,1.06087 -3.02768,2.19324 -4.65098,5.91865 -4.68269,10.74659 -0.0189,2.8616 0.0754,3.41142 0.89043,5.1992 1.04359,2.28902 2.99229,4.26342 4.85169,4.91571 1.73993,0.61037 6.18262,0.45008 8.92848,-0.32214 1.22947,-0.34576 2.28982,-0.57424 2.35632,-0.50772 0.11478,0.11479 -0.90343,8.86912 -1.0506,9.03268 -0.0385,0.0428 -0.85094,0.22704 -1.80553,0.40953 -2.51107,0.48003 -8.18615,0.65114 -10.10464,0.30471 z m 54.30787,-0.1698 c -4.20624,-0.91206 -7.71276,-3.35011 -8.94796,-6.2214 -1.10189,-2.56141 -1.26093,-5.20864 -0.817,-13.60077 0.22343,-4.224 0.50733,-10.38 0.63088,-13.68 l 0.22464,-6 h 4.81335 4.81331 l -0.20534,3.76 c -1.08957,19.95225 -1.07031,22.56355 0.18281,24.79987 1.84723,3.29651 6.52247,3.32384 8.44144,0.0493 1.13799,-1.94179 1.60362,-5.15267 2.01421,-13.88921 0.1944,-4.136 0.44211,-9.14 0.5505,-11.12 l 0.19709,-3.6 h 4.95494 4.95494 l -0.19449,2.48 c -0.10695,1.364 -0.40807,6.872 -0.66912,12.24 -0.75299,15.48323 -0.83079,16.14905 -2.19453,18.78627 -2.53555,4.9032 -11.12355,7.64954 -18.74967,5.9959 z m 245.27019,0.15658 c -3.4605,-0.57856 -7.1334,-2.58858 -8.5936,-4.70288 -2.0596,-2.98246 -2.4226,-5.87578 -1.8563,-14.79587 0.1956,-3.08 0.4363,-8.408 0.5349,-11.84 0.099,-3.432 0.2504,-6.708 0.3372,-7.28 l 0.1578,-1.04 h 4.7944 4.7944 l -0.1704,2 c -0.3757,4.41072 -0.8206,14.76281 -0.8362,19.45683 -0.019,5.57046 0.3311,7.05286 1.9934,8.45162 1.7389,1.4632 4.5796,1.4567 6.3279,-0.0144 2.1199,-1.78378 2.621,-4.86973 3.2324,-19.90832 0.1911,-4.7001 0.4149,-8.86967 0.4974,-9.26567 0.1474,-0.70797 0.2301,-0.72 4.9438,-0.72 h 4.7939 v 1.52 c 0,0.836 -0.1425,3.896 -0.3128,6.8 -0.1704,2.904 -0.4615,8.58915 -0.647,12.63367 -0.4688,10.22089 -1.158,12.72502 -4.2251,15.3503 -3.5333,3.02438 -9.7832,4.3545 -15.763,3.35478 z m 29.431,0.15478 c -0.528,-0.0717 -2.135,-0.36268 -3.571,-0.64665 l -2.611,-0.51629 -0.1835,-2.12531 c -0.1009,-1.1689 -0.2747,-3.38218 -0.3863,-4.91837 l -0.2028,-2.79309 1.8773,0.93559 c 6.3636,3.17145 12.2423,1.31811 9.7973,-3.08874 -0.308,-0.55517 -2.2491,-2.90528 -4.3135,-5.2225 -2.5062,-2.81308 -4.1012,-4.91952 -4.8,-6.33891 -0.9506,-1.93107 -1.0458,-2.39024 -1.0386,-5.01254 0.01,-2.49331 0.1339,-3.16183 0.9321,-4.90535 1.1196,-2.44566 3.0407,-4.24236 5.5729,-5.21203 1.4544,-0.55693 2.4629,-0.68848 5.1671,-0.67392 2.8075,0.015 7.4341,0.64755 7.8221,1.06928 0.1551,0.16858 0.8031,9.03677 0.67,9.16983 -0.062,0.062 -0.5704,-0.12407 -1.13,-0.41341 -1.3543,-0.70035 -5.0678,-1.45971 -6.0764,-1.24256 -1.7244,0.37126 -2.5113,0.84761 -3.0488,1.84563 -0.5371,0.99741 -0.5343,1.09386 0.073,2.46784 0.3663,0.82806 1.9715,2.83952 3.8137,4.77894 3.5897,3.77917 5.0681,5.78576 5.9256,8.04237 1.6147,4.24947 -0.2979,10.45354 -3.979,12.9073 -1.9153,1.27667 -3.8228,1.83158 -6.6307,1.92893 -1.496,0.0519 -3.152,0.0357 -3.68,-0.036 z M 74.519766,887.12872 c 0.34561,-3.69309 0.78997,-13.1703 0.96885,-20.66358 0.0987,-4.136 0.26288,-9.55114 0.36477,-12.03363 l 0.18524,-4.51364 8.20906,-0.22617 c 8.89566,-0.24506 11.64798,-0.0173 14.11513,1.16893 3.042734,1.46278 5.140474,4.1279 6.615294,8.40451 0.84306,2.44467 0.8828,2.83389 0.88236,8.64 -3.2e-4,5.72381 -0.0521,6.24873 -0.88181,8.96 -1.14882,3.75405 -2.63094,6.36064 -4.76355,8.37757 -3.558034,3.36505 -5.029134,3.69491 -16.817804,3.77107 l -9.05943,0.0585 z m 16.97697,-7.46432 c 3.43778,-1.76451 5.18581,-6.29536 4.89053,-12.67606 -0.30953,-6.68851 -2.40216,-8.91655 -8.34805,-8.88832 -1.57169,0.007 -2.94402,0.1 -3.04961,0.20557 -0.2402,0.24022 -0.98243,21.65619 -0.76389,22.04083 0.30952,0.54477 5.90309,0.0202 7.27102,-0.68202 z m 17.120004,8.89024 c 0,-0.3327 0.21268,-3.96294 0.47263,-8.0672 0.37974,-5.99571 1.12737,-25.73081 1.12737,-29.7592 v -0.9031 h 12.52 12.52 l -0.2,1 c -0.11,0.55001 -0.2,2.41939 -0.2,4.15421 v 3.1542 l -7.6,0.0858 -7.6,0.0858 -0.0912,3.28 -0.0912,3.28 6.3312,-1.6e-4 6.33119,-1.6e-4 -0.0855,2.96016 c -0.0471,1.62809 -0.16388,3.57216 -0.25961,4.32016 l -0.17406,1.36 -5.66039,0.004 c -3.11321,0.003 -5.96332,0.0857 -6.33358,0.18505 -0.61047,0.16388 -0.69162,0.4833 -0.87106,3.42858 -0.10882,1.78634 -0.0815,3.36429 0.0608,3.50656 0.14228,0.14224 3.55825,0.12832 7.59107,-0.031 4.03281,-0.15933 7.38608,-0.24285 7.45171,-0.18563 0.0656,0.0573 0.0152,2.04765 -0.11198,4.4232 l -0.23133,4.3191 -12.44801,0.003 c -11.99471,8.3e-4 -12.44802,-0.0211 -12.44802,-0.604 z m 63.48686,-3.2095 c 0.41361,-7.08519 0.7965,-16.87911 1.02099,-26.11603 l 0.22641,-9.31607 8.51287,-0.21497 c 5.15285,-0.13015 9.23658,-0.0914 10.34643,0.0982 4.69384,0.80183 7.75572,3.36349 9.60389,8.03498 1.30179,3.29043 1.66621,5.56064 1.64274,10.23389 -0.0312,6.22048 -1.27838,11.05961 -3.84794,14.93085 -1.4152,2.13209 -4.1914,4.40323 -6.19811,5.07052 -2.23031,0.74167 -7.4995,1.10724 -14.83812,1.02948 l -6.68398,-0.0708 z m 16.53956,-5.54771 c 3.62936,-1.57056 5.89119,-7.84138 5.09457,-14.12452 -0.72875,-5.74784 -2.74222,-7.58678 -8.28219,-7.56425 -1.65066,0.007 -3.04435,0.0554 -3.09709,0.10809 -0.11595,0.11597 -0.78171,17.45421 -0.78171,20.35783 v 2.05776 l 2.96,-0.16941 c 1.628,-0.0932 3.47589,-0.39267 4.10642,-0.6655 z m 17.38997,7.69491 c 0.54019,-5.02448 1.46215,-26.18935 1.46309,-33.5872 l 5.3e-4,-4.08 h 12.52826 12.52827 l -0.20661,3.12 c -0.11364,1.716 -0.20724,3.624 -0.208,4.24 l -10e-4,1.12 -7.47526,-0.0911 -7.47525,-0.0911 -0.20501,1.49575 c -0.11287,0.82265 -0.20512,2.33961 -0.20512,3.37107 v 1.87533 h 6.44695 6.44696 l -0.20695,2.44829 c -0.11383,1.34656 -0.20696,3.29056 -0.20696,4.32 v 1.87171 h -5.56 c -3.058,0 -6.01,0.09 -6.56,0.2 l -1,0.2 v 3.49648 3.49648 l 5.68,-0.18426 c 3.124,-0.10134 6.56421,-0.25517 7.64492,-0.34179 l 1.96492,-0.15754 -0.13676,2.80532 c -0.0752,1.54291 -0.21295,3.55462 -0.30609,4.47046 l -0.16933,1.66512 -12.48026,0.003 -12.48026,0.003 0.17924,-1.66723 z m 48.30694,-2.87104 c 0.11857,-2.50589 0.35274,-7.43616 0.52038,-10.95616 0.36949,-7.75827 0.40018,-12.96487 0.0763,-12.94608 -0.132,0.008 -1.17318,0.86249 -2.31372,1.89961 -1.14055,1.03712 -2.12122,1.83818 -2.17927,1.78013 -0.058,-0.058 -0.004,-2.41363 0.11987,-5.23469 l 0.22541,-5.12912 2.6781,-2.10492 2.6781,-2.10493 h 4.80185 4.80185 l -0.15836,0.72 c -0.27736,1.26093 -1.42757,26.76717 -1.54767,34.32 l -0.0662,4.16 -4.92613,0.0762 -4.92614,0.0762 z m 23.87668,4.36278 c 0,-0.11059 0.90866,-1.65859 2.01924,-3.44 8.74976,-14.03494 11.68794,-22.37933 9.3022,-26.41805 -1.42808,-2.41753 -5.01458,-2.01398 -6.30705,0.7097 -0.73786,1.55491 -0.69391,4.28387 0.0897,5.56899 0.81031,1.32893 1.71972,1.78826 3.25137,1.64218 0.68451,-0.0652 1.24455,-0.0816 1.24455,-0.0363 0,0.0453 -0.95694,1.90086 -2.12654,4.12355 l -2.12655,4.04121 -1.79345,-0.13529 c -4.9877,-0.37632 -7.95993,-4.09395 -8.2774,-10.35328 -0.24962,-4.92141 1.10972,-9.02423 3.92149,-11.836 3.9701,-3.97008 11.14623,-4.97319 16.46394,-2.30138 3.5963,1.80691 5.45111,5.33063 5.70696,10.84186 0.29165,6.28237 -2.08522,13.46182 -8.06274,24.35392 l -1.88785,3.44 h -5.70893 c -3.13991,0 -5.70893,-0.0905 -5.70893,-0.20106 z m 36.01211,-4.96902 0.23307,-5.14304 -6.33229,0.23744 -6.33228,0.23744 0.18302,-5.01453 0.18302,-5.0145 3.08474,-5.18636 c 1.69661,-2.85252 4.12062,-7.2378 5.38668,-9.74509 l 2.30194,-4.55869 h 5.86402 5.86402 l -0.20343,2.8 c -0.30224,4.16006 -0.7393,17.48304 -0.58261,17.76 0.0747,0.132 1.13945,0.24 2.36617,0.24 h 2.2304 l -0.0893,4.21421 -0.0893,4.21417 -2.27489,-0.0742 -2.27488,-0.0742 -0.2016,1.22 c -0.11087,0.67101 -0.20317,2.97661 -0.20511,5.12355 l -0.004,3.90355 -4.67048,0.003 -4.67048,0.003 0.23307,-5.14304 z m 1.5537,-14.42992 c 0.0908,-0.748 0.2375,-3.664 0.3261,-6.48 l 0.16108,-5.12 -2.16242,4 c -1.18934,2.2 -2.78027,5.116 -3.53542,6.48 l -1.37299,2.48 h 3.20931 3.20932 z m 112.64893,18.22947 c 0.50505,-3.99078 1.46528,-25.8687 1.46528,-33.38557 v -4.6039 h 12.48 12.48 l -0.003,1.52 c 0,0.836 -0.0944,2.708 -0.20743,4.16 l -0.2055,2.64 h -7.42701 -7.42697 l -0.20557,1.96694 c -0.11309,1.08183 -0.2056,2.59383 -0.2056,3.36 v 1.39306 h 6.4479 6.44794 l -0.20794,2.92915 c -0.11433,1.61104 -0.2079,3.55504 -0.2079,4.32 v 1.39085 h -5.56 c -3.05799,0 -6.00999,0.09 -6.56,0.2 l -1,0.2 v 3.49648 3.49648 l 5.68,-0.18426 c 3.124,-0.10134 6.56461,-0.2552 7.64579,-0.34189 l 1.96582,-0.15763 -0.14108,3.44541 c -0.0776,1.89498 -0.21162,3.90749 -0.29783,4.47222 l -0.15677,1.02682 -12.48598,0.003 -12.48602,0.003 0.17079,-1.3495 z m 29.10601,-0.96378 c 0.23789,-2.65708 1.02064,-20.24108 1.34551,-30.22569 l 0.22125,-6.8 h 5.68672 5.68672 l 4.86835,11.44 c 2.6776,6.292 5.11382,12.016 5.41386,12.72 l 0.54553,1.28 0.21213,-4.8 c 0.11667,-2.64 0.30848,-8.364 0.42621,-12.72 l 0.21405,-7.92 h 4.34957 4.34956 l -0.20553,3.28 c -0.11306,1.804 -0.44355,9.328 -0.7344,16.72 -0.29085,7.392 -0.60736,14.76585 -0.70339,16.38637 l -0.17456,2.94633 -5.53713,0.003 -5.53715,0.003 -0.41168,-1.02838 c -0.22643,-0.5656 -1.88614,-4.29911 -3.68829,-8.29664 -1.80211,-3.99754 -4.03929,-9.0712 -4.97148,-11.27482 -0.93223,-2.20361 -1.79693,-3.90089 -1.92157,-3.77174 -0.12467,0.12915 -0.31443,4.91481 -0.42173,10.63481 -0.1073,5.72 -0.27152,11.14807 -0.36499,12.06237 l -0.16992,1.66237 -4.34205,0.003 -4.34202,0.003 0.20643,-2.3057 z m 43.07927,1.39274 c 0,-0.51334 0.20547,-4.36349 0.45661,-8.5559 0.25114,-4.19239 0.54051,-10.7536 0.64304,-14.58045 l 0.1864,-6.95795 -4.8545,0.21014 -4.85446,0.21011 0.20954,-2.69219 c 0.11526,-1.4807 0.2104,-3.44819 0.21145,-4.37219 l 0.003,-1.68 h 14.24 14.24 l -0.003,2.64 c 0,1.452 -0.0957,3.41427 -0.20937,4.36061 l -0.20659,1.72057 -4.54615,-0.22518 -4.54614,-0.22519 -0.19491,1.54461 c -0.22151,1.75533 -0.84474,18.15303 -0.9465,24.90458 l -0.0676,4.48 -4.88,0.0759 -4.88,0.0759 v -0.93334 z m 21.02349,0.68512 c -0.0627,-0.12294 0.069,-2.67155 0.29261,-5.66355 0.40234,-5.38413 1.08045,-24.3424 1.08272,-30.27152 v -3.07155 l 7.44,-0.20772 c 12.08125,-0.33731 15.26339,0.30205 17.73991,3.56423 1.42726,1.88009 1.86057,3.53798 1.85734,7.10656 -0.004,4.84627 -1.58282,8.02307 -5.04954,10.16285 -1.65728,1.02291 -1.84528,1.24358 -1.66649,1.95587 0.11081,0.44157 1.41587,4.27459 2.90013,8.51782 1.48425,4.24323 2.69865,7.81242 2.69865,7.93152 0,0.11914 -2.268,0.18403 -5.04,0.14426 l -5.04,-0.0723 -0.57357,-2.4 c -0.60649,-2.5377 -3.61734,-13.72074 -4.67062,-17.34794 l -0.62374,-2.14793 2.0607,0.0157 c 3.5896,0.0275 5.86973,-1.93581 5.88195,-5.06487 0.0125,-3.15149 -1.16422,-4.02451 -5.65965,-4.19949 -3.21712,-0.12518 -3.26736,-0.116 -3.43036,0.62868 -0.13584,0.62041 -0.83021,25.3903 -0.82596,29.4622 v 1.18644 l -4.63126,-0.003 c -2.5472,-0.003 -4.68256,-0.10349 -4.74525,-0.22647 z m 30.81652,-0.43206 c 0,-0.36464 0.21238,-3.92288 0.47197,-7.90724 0.39715,-6.09571 1.12803,-25.20528 1.12803,-29.4936 v -1.27065 h 12.52185 12.52189 l -0.19836,1.2 c -0.10909,0.66 -0.19991,2.52941 -0.20186,4.15421 l -0.004,2.9542 -7.6,0.0858 -7.6,0.0858 -0.0912,3.28 -0.0912,3.28 h 6.34976 6.34976 l -0.10822,2.96 c -0.0595,1.628 -0.1834,3.56352 -0.27533,4.30115 l -0.16714,1.34115 -6.19731,0.0988 c -3.40851,0.0544 -6.26429,0.17085 -6.34621,0.25885 -0.0819,0.088 -0.20154,1.672 -0.26589,3.52 l -0.11702,3.36 6.4,-0.096 c 3.52,-0.0528 6.94,-0.17341 7.6,-0.26813 l 1.2,-0.17216 v 1.57898 c 0,0.86841 -0.0931,2.8904 -0.20685,4.49328 l -0.20688,2.9143 -12.43312,0.003 c -12.36394,0.003 -12.43315,-0.003 -12.43315,-0.66086 z m 39.2319,0.38371 c -0.0472,-0.0964 0.0278,-1.6872 0.16704,-3.5352 0.28093,-3.73351 0.77962,-16.3217 1.10426,-27.87383 l 0.21226,-7.55382 8.20227,-0.22598 c 9.07498,-0.25002 11.6535,-0.0214 14.32211,1.2686 1.94589,0.94077 4.23981,3.29072 5.33229,5.46253 3.28023,6.52106 3.00464,17.91367 -0.59923,24.77184 -2.08285,3.96368 -5.15603,6.44992 -9.0929,7.35623 -1.7607,0.40534 -19.4656,0.7024 -19.6481,0.32963 z m 16.97716,-9.23779 c 1.68486,-0.86058 3.13075,-2.60816 4.01888,-4.85741 0.59616,-1.50986 0.69753,-2.41946 0.71347,-6.4 0.017,-4.19303 -0.053,-4.79821 -0.72464,-6.28237 -1.41482,-3.1265 -3.16304,-4.04186 -7.64829,-4.00464 -1.50195,0.0125 -2.78579,0.0777 -2.85299,0.14486 -0.16723,0.16724 -0.73821,14.60346 -0.74774,18.90576 l -0.008,3.48359 2.96,-0.15546 c 2.15203,-0.11305 3.32278,-0.34077 4.28905,-0.83433 z m 17.07094,9.27123 c 0,-0.1352 0.21252,-3.40544 0.47223,-7.2672 0.45808,-6.81117 1.12777,-24.21594 1.12777,-29.31011 v -2.51133 h 12.52628 12.52627 l -0.204,2.16 c -0.11219,1.188 -0.20502,3.05741 -0.20627,4.15421 l -0.003,1.9942 -7.6,0.0858 -7.6,0.0858 -0.0912,3.28 -0.0912,3.28 h 6.45469 6.45468 l -0.20348,1.48467 c -0.11191,0.81654 -0.20349,2.74976 -0.20349,4.29597 v 2.81133 l -6.37399,0.104 c -3.50569,0.0572 -6.44886,0.1792 -6.54038,0.27107 -0.0915,0.0919 -0.19341,1.67587 -0.2264,3.52 l -0.06,3.35296 6.36041,-0.096 c 3.49821,-0.0528 6.90039,-0.17341 7.56039,-0.26813 l 1.2,-0.17216 v 2.54119 c 0,1.39766 -0.0918,3.41961 -0.20403,4.49328 l -0.20404,1.95209 -12.43597,0.003 c -6.83977,0 -12.43596,-0.10854 -12.43596,-0.24371 z m 39.14196,-2.53738 c 0.8705,-12.36147 1.49709,-25.94678 1.49766,-32.47126 v -4.08 h 5.00554 5.00557 l -0.21127,3.44 c -0.2214,3.60518 -1.15446,24.87952 -1.15785,26.4 l -0.003,0.88 h 6.98041 6.98042 l -0.10755,2 c -0.0592,1.1 -0.18813,3.03859 -0.28659,4.30797 l -0.17904,2.308 -11.86112,0.003 -11.86112,0.003 0.19654,-2.79127 z m 25.71927,2.55527 c -0.066,-0.12458 0.0608,-2.96253 0.2816,-6.30653 0.56227,-8.51469 1.0975,-22.13287 1.09734,-27.92 l -1.6e-4,-4.88 h 12.48 12.48 v 1.71171 c 0,0.94144 -0.0931,2.81344 -0.20694,4.16 l -0.20698,2.44829 h -7.42675 -7.42679 l -0.204,2.16 c -0.11219,1.188 -0.20502,2.7 -0.20627,3.36 l -0.003,1.2 h 6.44791 6.44793 l -0.20793,2.92915 c -0.11434,1.61104 -0.20791,3.55504 -0.20791,4.32 v 1.39085 h -5.73917 c -3.15654,0 -6.10854,0.14045 -6.56,0.31206 -0.80969,0.30787 -0.82083,0.35802 -0.82083,3.69651 v 3.38439 l 5.68,-0.18426 c 3.124,-0.10134 6.5721,-0.25597 7.66247,-0.34361 l 1.98246,-0.15933 -0.1591,3.44713 c -0.0875,1.89591 -0.22893,3.90858 -0.31424,4.47258 l -0.15514,1.02547 h -12.29766 c -6.76372,0 -12.35162,-0.10086 -12.41757,-0.22547 z m 65.2064,-1.59936 c 0.37699,-3.90308 0.81008,-12.75386 1.01731,-20.79063 l 0.21671,-8.40342 -4.69082,0.21312 -4.69082,0.21315 v -4.3697 -4.36969 h 14.44186 14.44189 l -0.19837,1.2 c -0.10908,0.66 -0.1999,2.62243 -0.20185,4.36096 l -0.004,3.16099 -4.75402,-0.22925 -4.75398,-0.22925 -0.18644,2.98826 c -0.10252,1.64355 -0.36707,8.63338 -0.58787,15.53293 l -0.40147,12.54464 -4.91254,0.003 -4.91255,0.003 0.17648,-1.82717 z m 55.34951,0.47827 c 0.52464,-4.10397 1.4417,-26.30384 1.45814,-35.29696 l 0.005,-2.59155 7.44,-0.20772 c 11.74797,-0.328 15.07085,0.28071 17.47869,3.20186 2.58471,3.13568 2.96992,9.34835 0.8402,13.5511 -0.80196,1.58263 -3.00356,3.79216 -4.60228,4.61892 -0.54812,0.28342 -0.9966,0.64624 -0.9966,0.80624 0,0.15996 1.224,3.85872 2.72,8.21942 1.496,4.3607 2.72828,8.00611 2.73843,8.1009 0.0543,0.50803 13.47165,-31.79399 15.0479,-36.22765 l 0.76794,-2.16 h 5.81805 5.81805 l 0.32605,1.04 c 0.17929,0.572 0.84944,2.984 1.48921,5.36 1.27011,4.71721 8.96455,31.55725 9.28947,32.404 0.18087,0.47129 -0.30908,0.52419 -4.89801,0.52851 l -5.09901,0.005 -1.20832,-4.86867 c -0.66461,-2.67776 -1.33239,-5.196 -1.48397,-5.59607 -0.27408,-0.72348 -0.30621,-0.72694 -5.93498,-0.64 l -5.65939,0.0874 -1.96704,5.44 -1.96704,5.44 -10.0839,0.0697 -10.08391,0.0697 -0.87584,-3.7497 c -0.68851,-2.94758 -4.21769,-16.00521 -4.83737,-17.89776 -0.0911,-0.27817 0.45942,-0.38352 1.94505,-0.37209 2.69575,0.0208 4.17591,-0.72285 5.16592,-2.59498 0.87072,-1.64653 0.94307,-3.55005 0.18381,-4.83536 -0.81501,-1.37971 -2.6023,-1.93645 -5.8544,-1.82371 l -2.7167,0.0942 -0.2016,5.6 c -0.11088,3.08 -0.3073,10.09344 -0.43652,15.58544 l -0.23491,9.98547 h -4.78093 -4.78089 l 0.17196,-1.34547 z M 862.208,869.42514 c -0.0378,-1.03351 -2.83123,-11.01299 -2.97827,-10.64 -0.82813,2.10054 -3.51248,9.5863 -3.64333,10.16 -0.16233,0.71177 -0.12534,0.72 3.23309,0.72 1.86851,0 3.39335,-0.108 3.38851,-0.24 z m 26.3682,15.76 c 0.36477,-6.7137 0.79578,-17.96608 1.02477,-26.75491 l 0.22185,-8.51492 8.357,-0.21033 c 4.88438,-0.12295 9.20387,-0.083 10.39507,0.096 2.33248,0.35056 4.83165,1.49782 6.40656,2.94102 7.01837,6.43123 6.59777,25.05031 -0.73155,32.37955 -0.88096,0.88096 -2.46099,1.99837 -3.53335,2.49876 -2.50883,1.17072 -6.90512,1.58179 -15.82438,1.47958 l -6.52461,-0.0747 z m 16.72966,-5.54259 c 3.61965,-1.84884 5.58833,-7.49376 4.88541,-14.00855 -0.39702,-3.67997 -1.78285,-6.06537 -4.09277,-7.04489 -1.02598,-0.43508 -6.90876,-0.72356 -7.27555,-0.3568 -0.14144,0.14147 -0.7615,16.13968 -0.76416,19.71644 l -0.003,2.68359 2.96,-0.15546 c 2.15203,-0.11305 3.32279,-0.34077 4.28906,-0.83433 z m 17.22706,7.20979 c 0.5698,-7.28634 0.8132,-12.26291 1.1734,-23.9872 l 0.4005,-13.04 h 12.4624 12.4624 l -0.2055,2.64 c -0.113,1.452 -0.2062,3.36 -0.2071,4.24 v 1.6 l -7.4781,-0.0911 -7.478,-0.0911 -0.2022,1.01108 c -0.1112,0.55609 -0.2022,2.07308 -0.2022,3.37107 v 2.36 h 6.4456 6.4455 l -0.2055,1.96694 c -0.1131,1.08183 -0.2056,3.02583 -0.2056,4.32 v 2.35306 h -5.56 c -3.058,0 -6.01,0.09 -6.56,0.2 l -1,0.2 v 3.51859 3.51859 l 4.24,-0.19357 c 2.332,-0.10643 5.7398,-0.2318 7.573,-0.27859 l 3.333,-0.085 -0.057,2.4 c -0.031,1.32 -0.1431,3.29331 -0.2487,4.38515 l -0.192,1.98512 -12.4565,0.003 -12.4565,0.003 0.1805,-2.30723 z m 39.1049,2.07635 c -0.064,-0.12294 0.068,-2.59955 0.2931,-5.50355 0.4071,-5.24848 1.0824,-24.09517 1.0847,-30.27152 v -3.23155 l 7.44,-0.20772 c 11.5824,-0.32336 15.0254,0.28221 17.3689,3.05504 1.7425,2.0616 2.2157,3.61428 2.2238,7.29575 0.011,5.16749 -1.4851,8.28557 -5.0248,10.4704 -1.0164,0.62733 -1.8479,1.23408 -1.8479,1.34841 0,0.27962 2.4616,7.52928 4.2848,12.61956 0.8114,2.26508 1.4752,4.24163 1.4752,4.39232 0,0.15068 -2.268,0.2414 -5.04,0.20163 l -5.04,-0.0723 -0.5736,-2.4 c -0.6064,-2.5377 -3.6173,-13.72074 -4.6706,-17.34794 l -0.6237,-2.14793 2.0607,0.0157 c 3.5896,0.0275 5.8697,-1.93581 5.8819,-5.06487 0.013,-3.15149 -1.1642,-4.02451 -5.6596,-4.19949 -3.2174,-0.12521 -3.2673,-0.11606 -3.4291,0.62868 -0.1314,0.60531 -0.8303,25.64096 -0.8268,29.6222 v 1.02644 l -4.6313,-0.003 c -2.5472,-0.003 -4.6837,-0.10349 -4.7477,-0.22647 z m 30.819,-0.26966 c 0,-0.2768 0.2116,-3.83568 0.4702,-7.90858 0.3976,-6.26333 1.1298,-25.48022 1.1298,-29.65466 v -1.27065 h 12.52188 12.5218 l -0.1983,1.2 c -0.1091,0.66 -0.1999,2.52941 -0.2019,4.15421 v 2.9542 l -7.6,0.0858 -7.6,0.0858 -0.091,3.28 -0.091,3.28 h 6.3426 6.3424 l -0.1017,3.28 c -0.056,1.804 -0.174,3.73949 -0.2623,4.30109 l -0.1605,1.02108 -6.2031,0.0989 c -3.4117,0.0544 -6.2701,0.17091 -6.3521,0.25891 -0.082,0.088 -0.2015,1.672 -0.2659,3.52 l -0.117,3.36 6.4,-0.096 c 3.52,-0.0528 6.94,-0.17341 7.6,-0.26813 l 1.2,-0.17216 v 1.57898 c 0,0.86841 -0.093,2.89155 -0.207,4.49584 l -0.2071,2.91686 h -12.4329 c -11.09428,0 -12.43298,-0.0533 -12.43298,-0.5024 z m -833.1203,-63.78042 c -4.00011,-0.36029 -6.89549,-0.81744 -12.5539,-1.98214 l -4.87412,-1.00327 -0.15292,-0.99401 c -0.0841,-0.54672 -0.24017,-2.93805 -0.34682,-5.31405 -0.10666,-2.376 -0.39957,-6.912 -0.65093,-10.08 -0.25136,-3.168 -0.45793,-6.14781 -0.45905,-6.62183 l -0.002,-0.86182 3.92,1.88701 c 10.68445,5.14329 20.60279,5.49494 24.35147,0.86329 1.87291,-2.31405 1.48759,-6.64038 -0.8752,-9.82665 -0.58731,-0.792 -4.75757,-5.5905 -9.26726,-10.66333 -4.50968,-5.07283 -9.00517,-10.43431 -9.98998,-11.91437 -4.47297,-6.72246 -5.89654,-14.06016 -4.3128,-22.23008 1.57542,-8.12704 6.1171,-14.3665 12.89388,-17.71392 3.35207,-1.65581 5.59051,-2.24083 10.63989,-2.7809 5.43633,-0.58144 11.27542,-0.13516 19.73372,1.50823 l 4.37371,0.84976 0.17635,2.91232 c 0.097,1.60176 0.423,6.69011 0.72446,11.30745 0.30145,4.61735 0.46891,8.47437 0.37212,8.57114 -0.0968,0.0968 -1.23897,-0.30822 -2.53817,-0.90006 -6.3734,-2.90333 -13.84405,-4.02887 -17.77908,-2.67869 -3.58217,1.22915 -5.54311,3.54963 -5.54311,6.55945 0,3.59872 1.81456,6.32919 9.28592,13.973 8.74779,8.94972 11.636,12.56512 14.35359,17.96748 1.72291,3.42503 2.2905,5.70269 2.50009,10.03252 0.6005,12.40569 -5.61293,22.89481 -16.00171,27.01302 -4.76176,1.88762 -11.60359,2.69456 -17.97811,2.12045 z m 73.9636,-0.0147 c -10.06278,-0.96106 -18.00989,-4.59549 -24.92375,-11.39824 -8.65317,-8.51418 -12.38933,-19.25904 -12.397,-35.65277 -0.008,-16.99763 4.66026,-30.14294 14.07116,-39.62326 5.66282,-5.70461 11.89316,-9.21053 20.0026,-11.25581 8.39836,-2.11821 16.44898,-2.01091 28.69291,0.38233 l 3.4093,0.6664 0.18725,4.20125 c 0.57283,12.85235 0.7603,17.97341 0.66173,18.07594 -0.0606,0.0631 -2.02666,-0.40442 -4.36892,-1.03888 -4.99242,-1.35229 -9.70069,-2.11296 -13.05865,-2.10973 -7.35589,0.007 -14.87009,3.53482 -19.02171,8.93014 -4.02675,5.23306 -6.29687,11.41802 -6.8797,18.74378 -0.73872,9.28496 1.50695,17.11421 6.41687,22.37171 2.61129,2.79613 4.35818,4.02269 7.27438,5.10765 3.06954,1.14199 5.09139,1.48141 8.78591,1.47491 4.91244,-0.009 10.24637,-0.94195 16.5209,-2.89072 1.65917,-0.51529 3.04668,-0.9024 3.08338,-0.86022 0.0367,0.0422 -0.19682,1.87667 -0.51892,4.07667 -0.52366,3.57674 -2.22111,17.7152 -2.22111,18.50013 0,0.37626 -2.41477,0.82726 -8.8,1.64352 -5.80395,0.74198 -13.06408,1.02317 -16.91663,0.6552 z m 69.55663,-0.0133 c -13.96659,-1.30905 -24.56886,-7.51408 -31.74008,-18.57603 -5.68383,-8.76759 -8.24783,-22.07603 -6.96068,-36.12947 1.72515,-18.83572 10.36661,-32.69949 24.92371,-39.98602 12.96322,-6.48867 30.43758,-6.27773 42.89706,0.51789 7.34678,4.00704 14.19315,12.02902 17.63978,20.6687 5.69443,14.2744 4.85337,35.16912 -1.99329,49.51943 -1.93363,4.0528 -2.98694,5.76118 -5.6231,9.12 -3.63712,4.63421 -9.43054,9.02774 -14.91469,11.31078 -7.08199,2.94826 -16.28824,4.29895 -24.22871,3.55472 z m 9.44001,-21.80377 c 0.88,-0.18525 2.464,-0.74727 3.52,-1.24887 8.14818,-3.87037 13.23081,-13.45677 13.81302,-26.05286 0.32551,-7.04263 -0.74555,-12.61613 -3.47053,-18.05949 -3.54496,-7.08131 -9.41863,-10.98128 -16.58249,-11.01034 -3.3629,-0.0138 -5.61802,0.50544 -8.34909,1.92179 -4.2446,2.20128 -7.57673,5.74919 -9.86898,10.50804 -4.97073,10.31952 -5.15551,23.55657 -0.46235,33.12 1.20743,2.46041 1.95597,3.4982 3.92614,5.44342 5.05003,4.98599 10.85361,6.77226 17.47428,5.37831 z m 638.48486,21.8134 c -1.7133,-0.15369 -4.4493,-0.5024 -6.08,-0.77494 -2.8362,-0.47402 -10.864,-2.1207 -11.0574,-2.2681 -0.051,-0.0388 -0.2958,-3.53932 -0.5443,-7.77891 -0.2484,-4.23958 -0.6159,-9.5248 -0.8166,-11.74489 -0.2007,-2.2201 -0.2966,-4.10481 -0.2132,-4.18826 0.084,-0.0834 1.5006,0.56745 3.1492,1.44643 9.4901,5.05971 20.6707,5.9152 24.4956,1.87431 1.4622,-1.54477 1.7819,-2.37421 1.7819,-4.62247 0,-3.47178 -0.8773,-4.77533 -10.4966,-15.5967 -4.683,-5.26813 -9.1358,-10.45213 -9.8951,-11.52 -4.67,-6.56711 -6.4843,-13.08183 -5.6753,-20.37828 0.5104,-4.60332 1.0897,-6.63644 2.9956,-10.51392 1.3976,-2.84342 2.0402,-3.73952 4.2451,-5.92 5.5581,-5.49654 11.0722,-7.36595 21.6263,-7.3319 5.6282,0.0182 7.8493,0.25978 14.7752,1.60726 5.0523,0.98295 4.7255,0.63424 4.7555,5.07524 0.011,1.584 0.2837,6.408 0.6067,10.72 0.3231,4.312 0.535,7.89728 0.471,7.96729 -0.064,0.07 -1.235,-0.37897 -2.6024,-0.99773 -5.0487,-2.28473 -9.0154,-3.23136 -13.526,-3.22787 -3.4131,0.003 -4.9618,0.44531 -7.2121,2.06135 -2.3618,1.69612 -3.2158,4.35532 -2.3731,7.3896 0.6373,2.29484 3.585,6.06777 9.4135,12.04876 6.6788,6.85367 9.0701,9.58784 11.3823,13.01431 2.2029,3.26457 3.6765,6.44825 4.5068,9.73693 0.5969,2.36406 0.6633,3.30985 0.5169,7.36 -0.2001,5.53673 -1.0233,8.77421 -3.3755,13.27593 -2.6827,5.13437 -7.9247,9.64605 -13.4009,11.53392 -4.879,1.68199 -11.1828,2.31501 -17.4531,1.75264 z m -875.122564,-1.8351 c 10e-4,-0.132 0.21251,-3.048 0.46942,-6.48 1.60628,-21.45844 2.8411,-50.36941 3.26312,-76.4 l 0.20881,-12.88 h 30.348174 30.34816 l 0.006,1.04 c 0.003,0.572 -0.16636,5.2359 -0.37724,10.36425 l -0.38341,9.32423 -15.38277,-0.16992 c -8.46052,-0.0935 -16.77114,-0.0651 -18.46803,0.063 l -3.08527,0.23296 -0.23101,7.25274 c -0.12705,3.98899 -0.25068,7.61274 -0.27473,8.05274 l -0.0437,0.8 15.6,-0.0603 15.60001,-0.0604 -0.004,1.18036 c -0.002,0.64918 -0.21576,5.21232 -0.47463,10.14032 -0.25888,4.928 -0.47311,9.176 -0.47607,9.44 -0.005,0.41868 -1.7327,0.48265 -13.52538,0.50076 -7.43599,0.0115 -14.47748,0.12935 -15.64775,0.26205 l -2.12777,0.24122 -0.18711,2.77798 c -0.10291,1.52791 -0.27892,5.33399 -0.39113,8.45799 l -0.20402,5.68 8.5989,-0.009 c 8.65739,-0.009 21.34454,-0.40672 26.32641,-0.82519 l 2.68751,-0.22576 -0.20169,3.00996 c -0.11092,1.65548 -0.37256,6.50198 -0.58141,10.76998 l -0.37973,7.76 h -30.50585 c -16.778364,0 -30.505064,-0.108 -30.503794,-0.24 z m 279.041764,-0.8 c 0.003,-0.572 0.21069,-3.488 0.46324,-6.48 1.77801,-21.06506 3.67804,-63.95156 3.6896,-83.28 l 0.003,-5.2 h 12.18198 12.18199 l -0.18916,2.48 c -0.49347,6.46934 -2.39728,49.23046 -2.93491,65.92 l -0.21907,6.8 13.5696,-0.0358 c 7.46327,-0.0198 14.92221,-0.12771 16.57546,-0.24 l 3.00589,-0.20419 11.80886,-28.64 c 6.49488,-15.752 13.30387,-32.528 15.13111,-37.28 l 3.32221,-8.64 14.18304,-0.0828 14.18301,-0.0828 4.06172,14.96285 c 3.79396,13.97645 19.21421,67.96935 21.95757,76.88282 l 1.23111,4 -12.31472,0.0838 c -6.77312,0.0461 -12.38096,0.0176 -12.46192,-0.0634 -0.0809,-0.081 -0.9873,-3.64666 -2.01415,-7.92381 -1.02685,-4.27715 -2.56093,-10.29664 -3.40909,-13.37664 l -1.54208,-5.6 -13.79869,-0.0834 c -12.91913,-0.0781 -13.81308,-0.0475 -14.02432,0.48 -0.88253,2.20345 -5.58973,15.12889 -7.40131,20.3231 l -2.20413,6.31975 -37.52,2.5e-4 -37.52,2.6e-4 0.004,-1.04 z m 108.27019,-47.52 c -3.06051,-12.35709 -6.80679,-26.36554 -6.95319,-26 -0.10572,0.264 -1.54678,4.224 -3.20236,8.8 -1.65559,4.576 -3.81757,10.46467 -4.80442,13.08595 -0.98685,2.62128 -1.79427,4.81728 -1.79427,4.88 0,0.0627 3.81875,0.11405 8.48611,0.11405 h 8.48608 z m 55.89082,47.31539 c 0.003,-0.63546 0.1399,-2.81139 0.30467,-4.83539 0.49088,-6.02979 1.25123,-19.72925 1.60733,-28.96 0.8401,-21.77623 0.99043,-27.32704 1.17965,-43.54912 l 0.20189,-17.30916 17.95072,-0.24425 c 24.81274,-0.3377 26.87021,-0.27418 32.19069,0.99369 3.32413,0.79216 8.15462,3.28957 10.89664,5.6337 8.83891,7.55622 13.54515,21.99546 13.0033,39.89526 -0.52016,17.18343 -5.05991,30.68145 -13.24749,39.38871 -3.49514,3.71702 -8.47927,6.92413 -12.57245,8.08998 -6.32122,1.80048 -12.0424,2.161 -33.36,2.10212 l -18.16001,-0.0502 0.005,-1.15539 z m 37.77092,-20.37418 c 3.55993,-0.79974 5.60809,-1.91507 8.17961,-4.45424 5.03485,-4.97155 7.81479,-14.04009 7.79808,-25.43859 -0.0102,-7.0624 -0.76803,-10.96534 -3.01859,-15.54931 -2.45872,-5.00784 -5.32714,-7.2217 -10.7944,-8.33111 -2.16931,-0.44019 -3.74499,-0.50588 -8.53229,-0.35564 -3.22941,0.10134 -5.91731,0.23004 -5.97312,0.28598 -0.0558,0.0559 -0.47091,11.2617 -0.9224,24.9017 -0.45152,13.64 -0.87354,25.83664 -0.93779,27.10361 l -0.11687,2.30362 1.15092,0.14579 c 2.41814,0.3064 10.81673,-0.0839 13.16685,-0.61181 z m 41.58909,20.41879 c 0.003,-0.66 0.14038,-2.856 0.30579,-4.88 0.46928,-5.74304 1.56122,-24.02935 1.92038,-32.16 0.66877,-15.13984 1.60352,-46.54976 1.60701,-54 l 0.003,-3.76 h 30.44791 30.44794 l -0.19872,2.8 c -0.10928,1.54 -0.29716,6.20393 -0.41751,10.36432 l -0.21878,7.56435 -15.39043,-0.17005 c -8.46471,-0.0935 -16.77658,-0.0653 -18.47082,0.0626 l -3.08042,0.23261 -0.20249,4.21312 c -0.1114,2.31718 -0.29188,6.00041 -0.40106,8.18493 l -0.19859,3.97187 15.75757,-0.19562 15.75757,-0.19558 -0.19053,2.30374 c -0.1048,1.26707 -0.34736,5.90375 -0.53904,10.30375 -0.19168,4.4 -0.38247,8.13289 -0.42397,8.29532 -0.0444,0.17348 -5.74515,0.32045 -13.81706,0.35626 -7.55785,0.0335 -14.6216,0.16896 -15.69718,0.30099 l -1.95565,0.24007 -0.28435,8.49446 -0.28439,8.4945 13.76,-0.19946 c 7.56801,-0.10973 15.96548,-0.3631 18.66106,-0.56307 2.69559,-0.2 4.94419,-0.31309 4.99693,-0.25136 0.0776,0.0909 -0.97405,21.03846 -1.06995,21.31229 -0.0154,0.044 -13.70803,0.08 -30.42804,0.08 h -30.4 l 0.005,-1.2 z m 87.81709,-0.84701 c 1.30343,-13.90794 2.82084,-51.13376 3.27005,-80.22195 l 0.2105,-13.62893 17.78864,-0.24999 c 21.5903,-0.30339 24.22064,-0.27168 28.50867,0.3434 6.3936,0.91715 11.11162,3.10944 15.48842,7.19686 5.10733,4.7697 8.47431,11.41414 10.54263,20.80499 1.23952,5.62778 1.59129,9.18845 1.57705,15.96263 -0.0259,12.34019 -2.30317,23.09776 -6.80774,32.16 -2.93661,5.90781 -6.55965,10.26736 -11.36036,13.66976 -3.85401,2.73142 -6.86675,3.94973 -12,4.85254 -5.50022,0.96736 -10.74249,1.16871 -29.06045,1.11623 l -18.34041,-0.0525 z m 37.725,-19.54307 c 8.15062,-1.74352 13.12848,-8.28976 15.24602,-20.0496 1.7296,-9.60535 0.90646,-19.06906 -2.20922,-25.40032 -2.1769,-4.42359 -4.60458,-6.60743 -8.81959,-7.93376 -2.02796,-0.63815 -2.91657,-0.70618 -9.21641,-0.7056 -5.1193,0 -7.03584,0.10384 -7.21203,0.38892 -0.13197,0.21351 -0.56573,10.36522 -0.96394,22.55933 -0.39818,12.19411 -0.81082,24.28509 -0.91696,26.86887 l -0.19299,4.69776 1.24899,0.15181 c 2.2744,0.27648 10.81235,-0.1017 13.03613,-0.57741 z m 31.98941,21.19008 c 0.0907,-0.22 1.1295,-2.56 2.30832,-5.2 3.38278,-7.57594 30.31226,-73.03722 33.76608,-82.08 l 3.11664,-8.16 14.1962,-0.0813 14.19622,-0.0812 3.78663,14.00125 c 3.5495,13.12464 20.07008,70.97104 21.77398,76.24125 0.48576,1.5024 0.79303,2.1008 0.82163,1.6 0.0253,-0.44 0.17812,-2.312 0.34004,-4.16 0.3383,-3.8617 2.37603,-50.26394 2.86675,-65.28 0.18115,-5.544 0.32976,-12.852 0.33017,-16.24 v -6.16 h 14.04577 c 10.93699,0 14.08156,0.0885 14.20758,0.4 0.089,0.22 5.62694,13.216 12.30653,28.88 6.67958,15.664 12.56218,29.56 13.07242,30.88 l 0.92771,2.4 0.21539,-3.68 c 0.34138,-5.83232 1.19766,-31.58317 1.38867,-41.76 0.0958,-5.104 0.25655,-11.044 0.35728,-13.2 l 0.18311,-3.92 h 10.61116 10.6112 l -0.545,8.72 c -0.7172,11.47347 -3.0687,66.34838 -3.346,78.08336 l -0.2176,9.20336 -13.75504,-0.0834 -13.75508,-0.0834 -2.45398,-5.76 c -1.3497,-3.168 -5.56522,-12.6 -9.36784,-20.96 -5.87399,-12.91392 -11.824,-26.59456 -14.26538,-32.8 l -0.6295,-1.6 -0.18471,2.08 c -0.28771,3.24028 -1.14969,30.96028 -1.33836,43.04 -0.0935,5.984 -0.25008,12.06896 -0.34804,13.52214 l -0.17811,2.64215 -22.5761,-0.0822 -22.57609,-0.0821 -1.69668,-7.2 c -0.93318,-3.96 -2.47081,-10.008 -3.41699,-13.44 l -1.72026,-6.24 h -13.83833 -13.83831 l -2.32285,6.24 c -1.2776,3.432 -3.46444,9.51513 -4.85971,13.51811 l -2.53686,7.27811 -12.91424,0.003 c -10.20666,0 -12.87965,-0.082 -12.74922,-0.39811 z m 58.93444,-48 c -5.34164,-21.22125 -6.82007,-26.59018 -7.11552,-25.84 -0.17332,0.44 -1.42884,3.896 -2.79005,7.68 -1.36122,3.784 -3.4673,9.51478 -4.68016,12.73507 -1.2129,3.22025 -2.20525,5.92025 -2.20525,6 0,0.0797 3.81875,0.14493 8.48611,0.14493 h 8.48608 z m 164.74554,48 c 0.091,-0.22 1.1295,-2.56 2.3084,-5.2 3.3827,-7.57594 30.31218,-73.03722 33.76598,-82.08 l 3.1167,-8.16 14.1962,-0.0813 14.1962,-0.0813 3.6527,13.52128 c 4.8023,17.77651 20.8752,73.85344 23.3899,81.60499 l 0.2867,0.88368 -12.5097,-0.0837 -12.5097,-0.0837 -1.6967,-7.2 c -0.9331,-3.96 -2.4707,-10.008 -3.4169,-13.44 l -1.7202,-6.24 h -13.8384 -13.8383 l -2.3228,6.24 c -1.2776,3.432 -3.4645,9.51513 -4.8597,13.51811 l -2.5369,7.27811 -12.91418,0.003 c -10.2067,0 -12.8797,-0.082 -12.7493,-0.39811 z m 58.93448,-48 c -5.3417,-21.22125 -6.8201,-26.59018 -7.1156,-25.84 -0.1733,0.44 -1.4288,3.896 -2.79,7.68 -1.3612,3.784 -3.4673,9.51478 -4.6802,12.73507 -1.2128,3.22025 -2.2052,5.92025 -2.2052,6 0,0.0797 3.8187,0.14493 8.4861,0.14493 h 8.4861 z M 306.53676,700.48949 c -52.04527,-1.76586 -95.37147,-18.21066 -129.20805,-49.04199 -18.80306,-17.13302 -32.20275,-36.26406 -36.21321,-51.70237 -3.30391,-12.71843 -0.58309,-23.08761 7.76298,-29.58505 17.74566,-13.81511 56.01886,-25.86327 111.25827,-35.02343 14.83668,-2.46029 29.83229,-4.5648 51.47125,-7.22352 5.78119,-0.71033 10.85719,-1.3783 11.28,-1.48445 0.43796,-0.10992 0.76876,-0.42915 0.76876,-0.74192 0,-0.76243 -1.65444,-3.01244 -4.57073,-6.21606 l -2.47325,-2.71693 -6.15801,2.06947 c -9.78021,3.28672 -17.03527,5.1248 -28.26823,7.1618 -13.87085,2.51539 -23.23465,3.49363 -35.82059,3.74224 -13.0424,0.2576 -20.88469,-0.416 -32.16688,-2.76298 -19.09641,-3.97251 -31.96157,-10.5135 -37.97424,-19.30707 -4.20808,-6.15437 -4.72599,-7.97274 -4.44093,-15.5921 0.10864,-2.904 0.28482,-5.748 0.39151,-6.32 l 0.19397,-1.04 h -11.79632 c -12.46431,0 -17.64733,-0.26432 -25.71632,-1.3047 -9.96072,-1.28432 -18.09847,-3.10637 -27.19611,-6.08928 -6.28386,-2.06036 -8.913994,-3.41716 -11.386884,-5.87418 -3.04442,-3.0249 -4.27945,-6.1648 -4.28363,-10.89053 -0.007,-7.70925 4.01121,-16.33968 12.737884,-27.36 3.47621,-4.38985 15.50316,-16.31792 20.20874,-20.04259 13.27397,-10.50688 41.5939,-28.45069 59.77004,-37.87098 3.40073,-1.76249 7.42997,-1.70205 7.42997,0.11149 0,1.05757 -1.4911,2.44749 -9.53333,8.88627 -13.53996,10.84042 -24.70449,20.89677 -32.95674,29.68547 -5.30549,5.6504 -14.05742,15.9954 -16.06985,18.99498 -1.77838,2.65072 -2.6639,5.17799 -2.42798,6.92944 0.36393,2.70186 3.24873,6.42589 7.12253,9.19459 7.34806,5.25184 23.11,9.22672 37.54536,9.46832 7.06228,0.11818 7.30676,-0.0372 14.21564,-9.03699 13.27028,-17.28637 27.82985,-31.31658 43.06437,-41.49866 6.36556,-4.25446 13.53961,-8.13395 18.80898,-10.17129 l 2.64897,-1.02419 -1.76187,-0.39428 c -7.57618,-1.6968 -36.63933,-16.45872 -55.69608,-28.29081 -6.06353,-3.76477 -8.57161,-5.7192 -9.44008,-7.35626 -1.38959,-2.61942 -0.20086,-3.93552 3.49215,-3.86633 1.86492,0.0349 2.53216,0.24544 5.78793,1.82608 4.48026,2.17516 21.74425,8.97968 28.27458,11.14428 17.15183,5.68538 34.02872,7.29162 42.66446,4.06058 1.49366,-0.55885 2.43958,-1.27933 4.93767,-3.76086 2.69931,-2.68141 3.27347,-3.45399 4.54052,-6.10957 2.47099,-5.17895 3.89072,-11.41667 4.84339,-21.28 0.88737,-9.1873 1.16877,-17.52852 1.46819,-43.52 0.1622,-14.08 0.44414,-28.264 0.62654,-31.52 0.64607,-11.53318 1.9764,-21.66067 3.69812,-28.15303 3.13825,-11.83381 10.8927,-24.25985 23.56842,-37.76698 4.07843,-4.34592 11.11406,-11.02634 13.01465,-12.35757 0.55308,-0.38739 0.62414,-0.68876 0.46976,-1.99223 -0.5055,-4.26813 3.89848,-6.34171 7.7312,-3.64016 l 1.41199,0.99526 28.73526,-16.33448 c 29.03136,-16.5028 31.48746,-17.87082 32.08464,-17.87082 0.35526,0 0.44685,1.24476 0.14877,2.02157 -0.21994,0.57315 -14.24644,13.97211 -26.50343,25.3177 -4.9089,4.54389 -9.3369,8.73043 -9.84,9.30342 -1.24154,1.41402 -1.18045,1.99846 0.23661,2.26431 2.06765,0.38789 34.4481,-0.10712 40.76867,-0.62325 12.24004,-0.9995 21.11469,-2.53046 23.6674,-4.08286 0.88032,-0.53535 0.9695,-0.69905 0.61414,-1.12724 -0.77072,-0.92865 -3.93069,-2.88558 -9.64198,-5.97114 -9.30519,-5.02718 -11.38093,-6.68481 -11.67866,-9.32629 -0.14032,-1.24505 -0.0485,-1.6094 0.57174,-2.26968 0.4064,-0.43259 1.09354,-0.78654 1.52692,-0.78654 1.1358,0 8.39712,2.33292 13.98729,4.49383 5.06845,1.95925 7.89735,2.61559 13.91316,3.22801 5.06918,0.51606 15.68793,0.52286 17.96809,0.0115 3.88813,-0.87194 27.94615,-13.40047 37.87191,-19.72229 5.57175,-3.54871 6.56,-3.28756 6.56,1.7335 v 2.72215 l -4.64,4.50933 c -4.05469,3.94051 -4.64,4.63766 -4.64,5.52665 0,0.90161 0.10221,1.01731 0.89875,1.01731 1.11757,0 4.43972,-1.2078 11.26125,-4.09417 11.86429,-5.02008 16.95812,-6.99298 25.92,-10.03912 31.389,-10.66909 63.51339,-16.36763 102.56001,-18.1931 9.06628,-0.42386 35.23245,-0.42433 47.52001,-9.6e-4 18.09827,0.62372 29.46576,0.75043 32.93245,0.36708 4.25277,-0.47027 7.70813,-1.62728 17.836,-5.97225 18.50243,-7.93776 33.70538,-15.0999 94.43156,-44.486859 3.036,-1.4692 5.52,-2.627561 5.52,-2.574141 0,0.05342 -1.69024,1.594797 -3.75606,3.425281 -30.42221,26.956249 -55.98289,50.603999 -60.58167,56.047859 l -1.55411,1.83969 0.46592,1.32054 c 0.69296,1.96408 0.60339,3.85183 -0.22496,4.74096 -0.65149,0.69932 -0.82013,0.72589 -2.96,0.46641 -1.248,-0.15134 -3.56513,-0.27789 -5.14913,-0.28123 l -2.88,-0.006 -5.6,3.24653 c -21.35193,12.3785 -48.70518,25.64033 -72.96,35.37359 -34.857,13.98782 -65.45674,22.09535 -91.52001,24.24858 -15.676,1.29508 -36.12736,1.29198 -51.04001,-0.008 -9.67667,-0.84338 -18.50297,-2.08607 -30.65865,-4.31658 -8.31623,-1.52598 -8.55056,-1.51296 -12.28048,0.68222 -9.47252,5.57487 -23.50724,11.41832 -30.41236,12.66239 -2.62413,0.47278 -9.74899,0.5292 -18.80851,0.14895 -7.41136,-0.31108 -10.45405,-0.0401 -12.96,1.15439 -7.63162,3.63754 -51.31095,60.08618 -77.32292,99.92766 -11.79421,18.06471 -15.43056,24.61652 -18.02622,32.47892 -6.51214,19.72563 -4.44926,44.24733 5.65327,67.20109 1.04574,2.376 2.15068,4.99267 2.45544,5.81478 0.89947,2.4265 0.98369,2.44442 5.25199,1.11728 2.06163,-0.64105 10.15643,-2.88489 17.98843,-4.98637 39.4696,-10.5904 57.0705,-15.93037 77.16743,-23.4119 17.05024,-6.34733 19.5601,-8.56835 19.02557,-16.83616 -0.42618,-6.59213 -0.90704,-8.09085 -4.95949,-15.45763 -2.77881,-5.05159 -4.17229,-8.05328 -4.18592,-9.01716 -0.004,-0.29542 0.23315,-0.77785 0.52739,-1.07209 0.60586,-0.60586 1.94125,-0.496 4.50493,0.37062 2.37475,0.80275 15.10557,6.68307 23.9201,11.04858 4.4,2.17917 9.05734,4.30397 10.34963,4.72179 4.20064,1.35814 7.10231,0.85776 7.08244,-1.22134 -0.025,-2.62013 -6.99328,-8.37629 -14.55207,-12.02084 -1.936,-0.93347 -5.824,-2.45363 -8.64,-3.37811 -7.02496,-2.30633 -9.47674,-3.60272 -8.55568,-4.52377 0.75136,-0.75136 6.08912,-1.01005 13.15405,-0.63748 11.59078,0.61127 22.13648,1.93088 33.87357,4.23866 10.17552,2.00074 13.71811,3.36755 16.91645,6.52666 2.41773,2.38806 3.19197,4.34403 2.91091,7.35392 -0.56099,6.00768 -5.28083,12.31148 -15.74515,21.02924 -3.23447,2.6946 -8.78007,8.04724 -16.96,16.36986 -18.733,19.05975 -27.14282,26.62429 -40.35735,36.30087 -13.24583,9.69948 -31.70666,20.69961 -46.07514,27.45446 -29.41895,13.8303 -73.72321,23.43165 -121.72168,26.37878 -9.19864,0.5648 -24.10854,0.74455 -29.23753,0.35248 -5.31147,-0.40601 -13.16259,-1.61558 -12.77436,-1.96803 0.13854,-0.12579 2.91589,-0.90624 6.17189,-1.73433 28.18261,-7.16778 67.06063,-20.39872 107.60411,-36.61978 16.48518,-6.59555 39.56429,-16.32192 38.78093,-16.34368 -0.18426,-0.005 -2.05626,0.57206 -4.16,1.28266 -29.40695,9.9327 -96.83524,23.94764 -169.10504,35.14844 l -7.84,1.21511 0.0838,1.57222 c 0.15955,2.99328 2.61378,6.70858 6.35203,9.61591 2.4305,1.89024 9.17301,5.17913 13.96168,6.81024 16.97959,5.78355 45.81816,9.43027 85.20249,10.77408 3.52,0.12009 7.04231,0.3079 7.82736,0.41734 l 1.42736,0.19898 -2.21977,1.27817 c -2.84012,1.63536 -3.27719,2.56605 -1.89621,4.0377 1.40032,1.49229 5.17373,4.22502 7.34797,5.3215 4.482,2.26026 10.21238,3.17828 17.75329,2.84407 2.376,-0.10531 10.872,-0.90874 18.88,-1.78538 14.8089,-1.62118 18.36627,-1.92077 18.71133,-1.57568 0.39267,0.39267 -7.69174,3.65917 -19.74685,7.97869 -3.12154,1.1185 -5.56954,2.12726 -5.44,2.24173 0.44458,0.39283 9.29287,3.46464 14.52755,5.04342 25.25629,7.61728 55.82282,12.40003 101.54798,15.88928 14.86835,1.13459 22.29031,1.44125 34.88,1.44122 27.11188,-10e-5 63.31271,-2.31223 117.92001,-7.53152 18.145,-1.73424 27.16743,-2.6441 66.56001,-6.71203 53.05597,-5.47892 51.99812,-5.38749 62.40001,-5.39146 9.75696,-0.004 13.44579,0.27978 22.88,1.7583 33.71245,5.28343 75.43527,22.76596 118.42516,49.62196 15.39895,9.6198 31.63267,21.0214 34.37097,24.14016 1.2453,1.41833 2.2271,3.46128 2.2368,4.65449 l 0.01,0.85892 -3.12,-1.30218 c -3.4065,-1.42173 -7.9177,-3.38147 -46.79996,-20.33072 -14.344,-6.25271 -28.81601,-12.51613 -32.16001,-13.91869 -29.1663,-12.23312 -49.10851,-17.94531 -70.72,-20.25693 -6.57008,-0.70272 -23.3681,-0.96928 -31.04,-0.49254 -19.47437,1.21017 -34.43671,3.72515 -71.36001,11.99472 -62.62657,14.02624 -120.05364,22.98381 -166.29813,25.93942 -24.98618,1.59693 -47.68551,1.2528 -62.34189,-0.94515 -15.93223,-2.38931 -37.26378,-8.36147 -53.44001,-14.96157 -22.78009,-9.29456 -42.53664,-21.22864 -61.28118,-37.01734 -3.97613,-3.34912 -3.84778,-3.26019 -5.11746,-3.54653 -4.87409,-1.0993 -24.52593,5.05219 -54.40137,17.0289 -23.19003,9.2966 -66.15799,27.98076 -78.72,34.23056 -9.27241,4.61315 -15.76935,9.21699 -16.34597,11.583 -0.64224,2.63524 5.50977,12.16506 12.49346,19.35309 16.31457,16.79191 41.21684,29.2136 73.54364,36.6848 22.3688,5.1698 45.46599,7.60308 76.38888,8.04765 65.44247,0.94083 147.86977,-9.49702 233.91368,-29.62067 4.48455,-1.04883 8.18525,-1.87539 8.22384,-1.83683 0.204,0.20403 -18.05513,9.81107 -26.7775,14.08896 -16.27047,7.9799 -27.23133,12.47238 -38.24001,15.67325 -11.4615,3.33251 -30.31277,8.29971 -42.72,11.25644 -70.55207,16.81309 -132.37374,25.10052 -176.16001,23.61488 z M 227.99527,456.08753 c 17.46294,-3.57123 59.27548,-12.95616 75.81201,-17.01622 11.08374,-2.72128 13.63203,-3.71319 13.24046,-5.15376 -0.0856,-0.31482 -1.29204,-2.15642 -2.68103,-4.09242 -4.85167,-6.76234 -8.15996,-13.38247 -10.20647,-20.42391 -1.12827,-3.88201 -1.44557,-5.49696 -2.116,-10.76956 -0.27929,-2.19642 -0.54874,-4.03444 -0.59878,-4.08448 -0.05,-0.05 -0.4911,0.22371 -0.98011,0.60835 -1.73319,1.36333 -5.98322,3.75443 -8.10103,4.55769 -4.20413,1.59463 -7.27429,2.15786 -12.76023,2.3409 -6.85768,0.22886 -12.12658,-0.5569 -16.60395,-2.4761 l -1.38435,-0.5934 -4.73952,4.87222 c -14.37571,14.77827 -30.61156,33.55856 -36.57228,42.30384 -3.68238,5.40263 -5.79123,10.3312 -4.98128,11.64173 0.39709,0.6425 2.60839,0.34326 12.67256,-1.71488 z m 94.71072,-156.1824 c 2.33814,-3.696 7.75043,-12.01257 12.02731,-18.48126 20.1682,-30.50394 35.18708,-50.63036 43.84621,-58.75724 l 3.06852,-2.87991 -3.2322,-1.62198 c -9.20281,-4.6182 -22.66557,-12.92371 -26.20576,-16.167 l -2.00665,-1.83839 -1.08004,0.82376 c -3.63216,2.7704 -11.2578,14.60769 -17.13713,26.60201 -12.51604,25.53379 -17.95908,51.63485 -15.19507,72.86513 0.24525,1.88382 0.52234,3.79182 0.61575,4.24 0.0934,0.44818 0.2498,1.19571 0.34754,1.66116 0.0977,0.46546 0.29531,0.71746 0.43904,0.56 0.14373,-0.15745 2.17434,-3.31028 4.51248,-7.00628 z M 564.29678,184.8573 c 43.1281,-2.83227 75.89917,-10.31324 92.43709,-21.1015 2.9074,-1.89661 6.23197,-4.48828 6.02413,-4.69612 -0.1631,-0.16312 -11.63001,0.75256 -18.62121,1.48698 -35.89489,3.77074 -72.27153,12.26096 -99.36001,23.19039 l -5.28,2.13033 7.68,-0.19508 c 4.224,-0.10728 11.928,-0.47404 17.12,-0.815 z m 445.74212,456.62591 c -11.98898,-1.27334 -36.45888,-9.20342 -59.66208,-19.335 -5.799,-2.53213 -8.8112,-4.93892 -9.3114,-7.4401 -0.1643,-0.82131 -0.059,-1.07376 0.6374,-1.53014 1.1297,-0.74023 3.2397,-0.45456 8.8071,1.19232 9.405,2.78204 10.8319,3.17264 13.7951,3.77651 9.496,1.93517 17.9374,2.71725 29.1118,2.69721 12.01748,-0.0214 14.28988,-0.49436 17.76338,-3.69622 3.4748,-3.20291 4.2863,-9.45453 1.8579,-14.31203 -0.4957,-0.99149 -0.9562,-1.93335 -1.0234,-2.09303 -0.068,-0.16288 0.5259,-0.21728 1.3541,-0.12393 3.5696,0.40233 11.7742,6.79334 23.4802,18.29008 2.8557,2.80467 5.5797,5.65856 6.0533,6.34198 1.5435,2.22714 1.0646,5.81373 -1.4143,10.5929 -1.7282,3.33184 -4.441,4.89565 -9.7744,5.63456 -2.8314,0.39229 -17.9949,0.39571 -21.6747,0.005 z m -411.96676,-6.67324 c -0.20758,-0.33588 0.77696,-0.81738 11.74221,-5.74244 23.42163,-10.51987 36.64036,-18.64598 39.60631,-24.34765 0.67043,-1.2888 1.26829,-3.90966 1.27232,-5.57763 0.008,-3.27235 -0.92685,-4.75133 -5.43706,-8.60211 l -1.41136,-1.20499 0.66819,-0.66823 c 1.63216,-1.63216 7.43069,-1.92963 21.06404,-1.08057 8.82672,0.54969 9.45136,0.62457 12.48,1.49638 4.43878,1.27767 7.9663,3.77373 9.45376,6.68938 0.57258,1.12233 0.67443,1.74416 0.54662,3.33661 -0.25449,3.17014 -2.18428,5.66672 -8.72038,11.2815 -15.86954,13.63258 -40.24129,22.31056 -68.48001,24.38346 -5.5768,0.40937 -12.54185,0.42915 -12.78464,0.0363 z M 780.2968,503.09211 c -18.81114,-1.80685 -33.77402,-7.62125 -47.04001,-18.2792 -17.0159,-13.67063 -27.7664,-34.05821 -30.06787,-57.0217 -0.18266,-1.82262 -0.33213,-4.45062 -0.33213,-5.84 v -2.52608 h 15.95447 15.95443 l 0.22627,3.6 c 0.27866,4.43389 1.16471,9.71866 2.26163,13.48912 5.4984,18.89981 21.10164,33.02838 40.64321,36.80205 6.33744,1.22381 15.92125,1.57577 22.24,0.8168 13.5281,-1.62496 24.36186,-6.68627 33.13818,-15.48151 10.82557,-10.84886 15.95773,-24.71504 15.40682,-41.62646 -0.50967,-15.64509 -5.83175,-28.31597 -16.20948,-38.59152 -8.8607,-8.77351 -19.67181,-13.80679 -32.95734,-15.34378 -4.87409,-0.5639 -15.76129,-0.22784 -20.56727,0.63485 -13.22349,2.37366 -24.05811,6.98198 -31.52528,13.4088 l -2.29082,1.97165 h -15.0513 -15.05126 l 0.16595,-1.36 c 0.37779,-3.0961 1.72778,-17.96071 1.6392,-18.04928 -0.0528,-0.0528 -14.78605,30.8967 -32.74058,68.77667 l -32.64458,68.87261 -17.01613,0.0828 c -9.35888,0.0455 -17.01581,-0.0266 -17.01542,-0.16 0,-0.13357 23.74429,-49.84087 52.76416,-110.46074 l 52.76343,-110.2179 -1.00416,-1.53634 -1.00413,-1.53635 -54.64,-0.006 -54.64001,-0.006 v 20 20 h -13.54973 -13.54976 l -0.2304,-33.91798 c -0.12672,-18.65488 -0.14083,-34.06288 -0.0314,-34.24 0.13303,-0.21522 45.66829,-0.32202 137.30014,-0.32202 h 137.10113 v 14.24 14.24 h -52.31389 -52.31392 l -0.15482,0.72 c -0.15046,0.69967 -7.2223,72.95805 -7.21901,73.76221 0,0.22208 1.18387,-0.34048 2.64163,-1.25623 6.49834,-4.08217 16.08346,-7.9544 23.92001,-9.66326 15.0847,-3.28941 34.47478,-2.49482 50.1304,2.05433 16.76205,4.87066 32.66186,16.445 43.05626,31.34295 5.29507,7.58928 10.05399,18.32793 12.2504,27.64345 3.312,14.04695 3.05671,31.43418 -0.6583,44.83655 -2.8248,10.19075 -8.53712,21.39782 -15.0058,29.44 -2.5135,3.12493 -8.05308,8.68701 -11.37296,11.4192 -16.40685,13.50253 -35.95648,19.88688 -60.45139,19.74176 -3.62375,-0.0214 -8.53261,-0.22576 -10.90861,-0.45398 z m 121.36743,-4.637 c -10.46173,-1.0999 -17.72307,-8.9576 -18.54678,-20.06998 l -0.19572,-2.64 h 4.36144 c 4.9129,0 4.42004,-0.28522 4.83713,2.7991 0.68726,5.08221 4.77404,8.90317 10.35174,9.67837 6.47754,0.90023 12.016,-1.54192 14.37059,-6.33661 0.80653,-1.64236 0.89418,-2.15024 0.89418,-5.18086 0,-3.91526 -0.50822,-5.23258 -2.76358,-7.16307 -2.22468,-1.90423 -3.88461,-2.38131 -12.40961,-3.56666 -4.26806,-0.59347 -6.85827,-1.42013 -9.25632,-2.95414 -6.0728,-3.88471 -8.93881,-11.04269 -8.02582,-20.04474 0.41139,-4.05632 1.64979,-7.73609 3.57712,-10.62909 2.20835,-3.31481 4.94006,-5.52096 8.4729,-6.84275 5.22998,-1.9568 11.90304,-1.64317 16.69401,0.78458 2.14301,1.08595 5.67629,4.45689 7.03431,6.7111 1.7205,2.856 2.922,6.86704 3.1428,10.49223 l 0.1909,3.13254 h -4.30596 -4.30595 l -0.4009,-2.38592 c -1.02198,-6.08205 -4.41248,-9.37594 -9.9911,-9.7064 -3.3265,-0.19709 -5.51248,0.46877 -7.54835,2.2992 -3.82196,3.43626 -5.00004,9.26413 -2.7865,13.78474 1.69482,3.46128 3.53782,4.39187 10.43021,5.26672 6.07734,0.77136 7.44138,1.09308 10.46144,2.46748 6.84101,3.11322 10.46061,8.72141 10.82551,16.7729 0.5007,11.04474 -4.8924,19.42582 -14.47511,22.49491 -1.46499,0.46922 -6.69997,1.21725 -7.84,1.12029 -0.264,-0.0224 -1.52067,-0.15024 -2.79258,-0.28394 z m 25.82109,-1.82998 c -0.01,-0.132 4.2777,-16.04522 9.52,-35.36272 l 9.5315,-35.12275 7.5056,0.0827 7.5056,0.0827 9.844,35.04 c 5.4141,19.272 9.8486,35.148 9.8544,35.28 0.01,0.132 -2.058,0.24 -4.5861,0.24 h -4.5966 l -1.1747,-4.24 c -0.6462,-2.332 -1.8701,-6.76 -2.7199,-9.84 l -1.545,-5.6 -12.5076,-0.0837 -12.5076,-0.0837 -0.279,1.04368 c -0.1534,0.57405 -1.3432,5.03971 -2.6441,9.92371 l -2.3651,8.88 h -4.412 c -2.4265,0 -4.4171,-0.108 -4.4234,-0.24 z m 36.1715,-30.03226 c 0,-0.10576 -1.7149,-6.40576 -3.811,-14 -2.096,-7.59427 -3.9736,-14.41974 -4.1723,-15.16774 -0.3542,-1.33296 -0.3887,-1.36 -1.7365,-1.36 h -1.3751 l -3.9023,14.64 c -2.1463,8.052 -3.9867,14.964 -4.0899,15.36 l -0.1876,0.72 h 9.6374 c 5.3005,0 9.6373,-0.0865 9.6373,-0.19226 z m 22.08,-5.2038 v -35.4761 l 3.76,-0.14368 c 2.068,-0.079 7.576,-0.0537 12.23998,0.0563 8.384,0.19769 8.5114,0.21094 11.2528,1.17225 6.4216,2.25184 10.3155,6.80858 11.9867,14.02733 0.8331,3.59856 0.8374,12.36906 0.01,16 -0.7043,3.08221 -2.2983,6.54541 -3.952,8.58595 -1.2653,1.56135 -4.1969,3.9233 -5.4746,4.41079 -0.4065,0.15513 -0.6754,0.39033 -0.5973,0.52265 0.078,0.13235 3.3403,5.78461 7.2495,12.56061 3.9092,6.776 7.3134,12.644 7.5648,13.04 l 0.457,0.72 h -5.3996 -5.3996 l -6.8581,-12.24 -6.858,-12.24 h -5.4297 -5.42968 l -0.084,12.24 -0.084,12.24 h -4.4762 -4.4762 v -35.47606 z m 22.71998,0.88934 c 4.9333,-1.13424 8,-6.1409 8,-13.0607 0,-6.04164 -2.1558,-10.45271 -6.1468,-12.57703 -1.29,-0.68665 -1.8045,-0.73753 -8.4932,-0.83987 l -7.11998,-0.1089 v 13.25328 c 0,7.28928 0.096,13.34928 0.2133,13.4666 0.3438,0.34377 11.96928,0.22931 13.54668,-0.13338 z m 26.88,-0.77328 v -35.36 h 3.68 3.68 v 35.36 35.36 h -3.68 -3.68 z m -250.24,-8.97914 c -7.18119,-1.54755 -12.97687,-6.00275 -16.12359,-12.39446 -2.37065,-4.8153 -2.90307,-7.38029 -2.90307,-13.9864 0,-4.83056 0.10042,-5.97079 0.73072,-8.29863 2.74925,-10.15328 9.48579,-16.61132 19.06832,-18.28006 2.77923,-0.48397 9.65994,-0.2224 12.18762,0.46336 3.73453,1.01312 6.4889,2.66893 9.62634,5.78698 2.36153,2.34691 3.1574,3.39824 4.24572,5.60835 2.15581,4.37795 2.6426,6.476 2.83984,12.24 l 0.17248,5.04 H 795.69901 776.4568 v 0.99382 c 0,1.40109 0.88057,4.6354 1.78006,6.53812 1.63533,3.45929 4.85562,6.12979 8.52547,7.06998 3.10695,0.79597 8.46013,0.48278 10.94999,-0.64058 2.69059,-1.21395 4.47606,-2.79241 5.48026,-4.84492 l 0.85932,-1.75642 h 4.92247 c 5.6168,0 5.31901,-0.20771 4.25814,2.97008 -0.87213,2.61251 -3.12185,6.20381 -4.93085,7.87126 -4.64409,4.2808 -9.94742,6.14314 -17.35136,6.09322 -2.07542,-0.0141 -4.7095,-0.22714 -5.8535,-0.4737 z m 19.0935,-32.59248 c -0.58195,-4.24576 -3.48099,-8.35382 -7.18054,-10.1751 -2.09091,-1.02935 -2.23415,-1.05312 -6.30624,-1.04563 -3.82925,0.007 -4.31498,0.0765 -5.99703,0.85808 -2.12422,0.98704 -4.76841,3.34035 -5.87513,5.22883 -0.92979,1.58656 -2.05456,4.75933 -2.05456,5.79555 v 0.74989 h 13.80349 13.80349 z m 94.97467,-6.34838 c -0.25175,-0.66352 -18.06816,-70.04704 -18.06816,-70.36391 0,-0.16864 1.94124,-0.25587 4.56,-0.20489 l 4.56,0.0888 7.55043,30.11037 c 4.15274,16.5607 7.65325,30.2767 7.77888,30.48 0.26842,0.43427 2.31213,0.50032 2.57002,0.0831 0.0974,-0.15763 3.20883,-13.36963 6.91424,-29.36 3.70541,-15.9904 6.87974,-29.61344 7.05414,-30.27344 l 0.317,-1.2 h 4.2887 c 2.3589,0 4.3488,0.108 4.422,0.24 0.073,0.132 -3.369,14.784 -7.6496,32.56 -4.2805,17.776 -8.09368,33.652 -8.47371,35.28 l -0.69098,2.96 h -7.49063 c -5.69817,0 -7.52691,-0.0957 -7.64233,-0.4 z m 36.97185,-35.12 v -35.52 h 16.16 16.16 v 5.12 5.12 h -11.68 -11.68 v 9.92 9.92 h 11.04 11.04 v 4.96 4.96 h -11.04 -11.04 v 10.4 10.4 h 12 12 v 5.12 5.12 h -16.48 -16.48 z m 40.32,-0.16 v -35.68 h 10.8935 c 8.6966,0 11.3909,0.10237 13.35998,0.50761 7.645,1.57341 12.5223,6.19015 14.6764,13.89239 0.8506,3.04166 0.8492,14.88941 0,17.91453 -1.4728,5.23299 -4.6649,9.55196 -8.6335,11.68105 -0.6767,0.36307 -1.118,0.80954 -1.029,1.04125 0.086,0.22314 3.4078,6.02998 7.3828,12.9041 3.9749,6.87414 7.3066,12.70556 7.4038,12.95875 0.1492,0.38896 -0.6417,0.46032 -5.1024,0.46032 h -5.279 l -6.8659,-12.24 -6.86598,-12.24 -5.4893,-0.0875 -5.4893,-0.0876 v 12.32756 12.32755 h -4.48 -4.48 v -35.68 z m 24.54198,0.24269 c 4.4759,-2.39245 6.8882,-8.5841 5.9234,-15.20368 -0.689,-4.72695 -2.8253,-8.14647 -6.0873,-9.74349 -1.78448,-0.87367 -1.94378,-0.89229 -8.61808,-1.00855 l -6.8,-0.11846 v 13.49773 13.49776 l 7.12,-0.10202 c 6.657,-0.0954 7.2073,-0.14864 8.46198,-0.81929 z m -214.51467,14.87731 c -0.13773,-0.22 -2.44845,-4.432 -5.13498,-9.36 l -4.88451,-8.96 5.65245,-0.0876 c 3.10886,-0.0482 5.7663,0.0262 5.9054,0.16531 0.13911,0.13911 2.04426,4.39053 4.23367,9.44762 l 3.98077,9.19469 h -4.75117 c -3.45405,0 -4.81955,-0.10922 -5.00163,-0.4 z m 94.73652,-63.2 c 0.0918,-0.308 4.21545,-15.464 9.16365,-33.68 4.94816,-18.216 9.21296,-33.876 9.47731,-34.8 l 0.48061,-1.68 h 7.47574 c 6.84279,0 7.48986,0.0474 7.64269,0.56 0.0918,0.308 4.49965,16.04 9.79507,34.96 5.2955,18.92 9.691,34.58384 9.7679,34.80851 0.11,0.3217 -0.8559,0.3897 -4.545,0.32 l -4.6846,-0.0885 -1.8095,-6.56 c -0.9953,-3.608 -2.2136,-8.036 -2.7074,-9.84 l -0.89794,-3.28 -12.52119,0.002 -12.52118,0.002 -2.21978,8.39793 c -1.22089,4.61885 -2.41971,9.08192 -2.66406,9.91792 l -0.44429,1.52 h -4.47751 c -4.11456,0 -4.46396,-0.0454 -4.31052,-0.56 z m 35.54413,-32.32 c -0.42307,-1.54 -2.32144,-8.4568 -4.21859,-15.37066 l -3.44938,-12.57065 -1.41549,0.0906 -1.41549,0.0907 -2.98608,11.2 c -1.64233,6.16 -3.47539,13.036 -4.07347,15.28 l -1.08739,4.08 h 9.70755 9.70759 z m 22.89204,-2.48 v -35.36 h 7.3159 7.316 l 8.4941,20.24 c 4.6718,11.132 10.4122,24.81627 12.7566,30.40949 3.1669,7.55553 4.3878,10.14535 4.7499,10.07563 0.4319,-0.0831 0.4968,-3.55335 0.5691,-30.40949 l 0.082,-30.31563 h 4.1584 4.1584 v 35.36589 35.36592 l -7.431,-0.0859 -7.431,-0.0859 -12.6879,-30.24 c -8.7557,-20.86794 -12.8495,-30.27207 -13.209,-30.34347 -0.4785,-0.095 -0.5211,2.38246 -0.5211,30.32 v 30.42347 h -4.16 -4.16 z m 59.84,0 v -35.36 h 4.47998 4.48 v 35.36 35.36 h -4.48 -4.47998 z M 387.22204,147.71266 c -0.74973,-1.0704 -0.67619,-1.65922 0.73987,-5.92504 1.66733,-5.02262 2.25485,-8.57747 2.25485,-13.64335 0,-4.75545 -0.584,-9.28501 -1.90809,-14.79915 -1.81444,-7.5563 -3.06743,-10.9639 -9.76634,-26.559999 -4.84566,-11.281476 -6.38099,-15.563063 -6.86739,-19.151325 -0.86509,-6.381514 1.69798,-11.884289 8.83504,-18.968282 7.77993,-7.722128 19.33667,-13.969965 30.18678,-16.319677 2.05904,-0.445911 4.04192,-0.586365 8.16001,-0.57801 4.92876,0.01 5.8694,0.107152 10.00934,1.033773 4.59843,1.029245 6.55229,1.658953 6.90173,2.224355 0.37017,0.598963 -1.32087,1.67697 -8.27107,5.27264 -13.18903,6.823306 -19.11524,11.648852 -23.73501,19.326801 -4.14896,6.895472 -4.83725,13.494656 -2.78272,26.679725 1.01648,6.523414 2.19606,10.744988 4.91772,17.599999 2.65661,6.69114 4.69847,13.19198 5.12093,16.30389 0.8041,5.92297 -0.84873,11.75013 -4.84201,17.07106 -3.9449,5.25645 -11.78999,10.38905 -16.79364,10.98713 -1.46707,0.17536 -1.68857,0.11849 -2.16,-0.55454 z m 61.27015,-13.90683 c -1.23811,-1.0418 -1.53008,-2.48246 -0.84224,-4.1557 0.44048,-1.07142 1.43197,-1.92611 6.47907,-5.58501 12.7618,-9.25169 22.64097,-17.11361 26.18842,-20.84093 7.51959,-7.900851 10.60516,-19.300727 8.95344,-33.079069 -0.67052,-5.593287 -1.43558,-9.064273 -3.52672,-16.000001 -1.67676,-5.561449 -1.67875,-5.621949 -0.2086,-6.373997 1.68217,-0.860518 3.39036,-0.926173 4.84108,-0.186067 4.80231,2.449952 16.0914,18.230285 18.54573,25.923975 2.92378,9.165175 3.53885,18.066919 1.74647,25.276088 -1.272,5.116141 -5.245,11.589871 -9.65485,15.731981 -3.73133,3.50475 -9.73456,7.15441 -15.59722,9.4823 -4.34179,1.724 -16.95382,6.11085 -22.19274,7.71933 -10.11933,3.10688 -13.02985,3.51922 -14.73184,2.0871 z"
       id="path177" />
  </g>
</svg>
