<?xml version="1.0" encoding="UTF-8" standalone="no"?>
<!-- Created with Inkscape (http://www.inkscape.org/) -->

<svg
   version="1.1"
   id="svg2"
   width="1578.0332"
   height="1129.1359"
   viewBox="0 0 1578.0332 1129.1359"
   sodipodi:docname="unnamed.png"
   xmlns:inkscape="http://www.inkscape.org/namespaces/inkscape"
   xmlns:sodipodi="http://sodipodi.sourceforge.net/DTD/sodipodi-0.dtd"
   xmlns="http://www.w3.org/2000/svg"
   xmlns:svg="http://www.w3.org/2000/svg">
  <defs
     id="defs6" />
  <sodipodi:namedview
     id="namedview4"
     pagecolor="#ffffff"
     bordercolor="#000000"
     borderopacity="0.25"
     inkscape:showpageshadow="2"
     inkscape:pageopacity="0.0"
     inkscape:pagecheckerboard="0"
     inkscape:deskcolor="#d1d1d1"
     showgrid="false" />
  <g
     inkscape:groupmode="layer"
     inkscape:label="Image"
     id="g8"
     transform="translate(-0.48369557,-0.54845196)">
    <path
       style="fill:#000000"
       d="m 769.5,1129.3727 c -19.41665,-1.6109 -42.86684,-6.2836 -60.28805,-12.013 -9.53881,-3.1372 -656.617851,-291.32287 -670.211951,-298.48827 -12.22813,-6.4455 -23.87692,-18.7819 -30.5671396,-32.3714 -8.68339004,-17.6383 -7.93286004,3.3179 -7.93286004,-221.50004 0,-223.69456 -0.66817,-203.68467 7.36295004,-220.5 C 14.373619,330.86814 26.786749,317.56473 38.999999,311.12977 52.624349,303.95133 699.68061,15.774298 709.21195,12.639968 721.73627,8.5214284 738.48998,4.6357887 753.69481,2.3231987 c 16.8614,-2.56455004 53.6801,-2.30818004 71.8052,0.49998 15.2945,2.36962 35.8734,7.5009293 48.1642,12.0096793 6.5741,2.41166 141.62429,62.3858 608.88869,270.400032 31.379,13.96917 59.6017,27.09032 62.7169,29.1581 9.4913,6.29994 20.0651,18.42999 25.2242,28.93673 8.7695,17.85927 8.006,-3.28022 8.006,221.67227 0,224.95254 0.7635,203.81304 -8.006,221.67224 -5.1615,10.5115 -15.7338,22.6374 -25.2364,28.9449 -3.122,2.0723 -33.1446,15.9937 -66.717,30.9365 -33.5723,14.9428 -118.1906,52.6061 -188.0406,83.6962 -69.85,31.09 -190.45,84.76777 -268,119.28387 -77.54999,34.5161 -144.53969,64.0555 -148.86609,65.6433 -12.2283,4.4876 -33.1984,9.7006 -47.8253,11.8889 -12.9388,1.9357 -44.96646,3.2478 -56.30861,2.3068 z M 659.27992,963.32103 c 0.42896,-0.2618 0.6497,-2.3537 0.49053,-4.6485 l -0.28939,-4.1725 -8.2729,-0.291 -8.2729,-0.291 0.28237,-11.209 0.28237,-11.209 6.5,-0.5 6.5,-0.5 v -4.5 -4.5 l -6.78825,-0.2966 -6.78826,-0.2966 0.28826,-8.7034 0.28825,-8.7034 8,-0.5 8,-0.5 v -4.5 -4.5 h -13 -13 l -0.26341,34.4938 c -0.14488,18.9716 -0.0383,35.0805 0.23683,35.7975 0.39265,1.0232 3.13787,1.164 12.76341,0.6546 6.74475,-0.3569 12.61413,-0.8631 13.04309,-1.1249 z m 36.95973,-2.4568 c 3.60922,-1.916 4.77973,-6.2446 4.40531,-16.2912 l -0.35503,-9.5263 -9.72117,-10.4978 -9.72116,-10.4978 -0.13085,-5.5886 c -0.14675,-6.2679 0.78864,-7.4225 6.03325,-7.4472 3.18109,-0.015 3.25,0.079 3.25,4.4256 0,2.4426 0.3375,4.6356 0.75,4.8734 0.4125,0.2378 2.775,0.1492 5.25,-0.1969 l 4.5,-0.6293 -0.1892,-7.4055 c -0.29363,-11.4931 -1.49274,-12.1735 -18.55698,-10.5301 -5.92909,0.571 -7.06228,1.0253 -9.35592,3.7512 -2.50528,2.9773 -2.59471,3.5076 -2.23413,13.2482 l 0.3756,10.1468 9.73031,10.3146 9.73032,10.3147 v 6.336 6.336 l -3.5,0.15 c -1.925,0.082 -4.0625,0.195 -4.75,0.25 -0.82886,0.066 -1.25,-1.4093 -1.25,-4.3798 0,-5.0319 -1.05962,-5.7006 -7.20587,-4.5476 l -3.50614,0.6578 0.38092,7.5433 c 0.33134,6.5616 0.70119,7.8027 2.84181,9.536 2.23023,1.806 3.35271,1.9264 11.97509,1.2853 5.2328,-0.389 10.29703,-1.1229 11.25384,-1.6308 z m 31.51035,-2.4945 2.25,-0.603 v -30.2764 c 0,-33.4756 -0.41495,-31.4903 6.58179,-31.4903 H 740 v -5 c 0,-5.9089 1.20974,-5.6599 -17,-3.5 -6.875,0.8154 -12.6125,1.4865 -12.75,1.4913 -0.1375,0 -0.25,2.3009 -0.25,5.1025 v 5.0938 l 5,-0.6876 5,-0.6877 v 30.5938 30.5939 l 2.75,-0.014 c 1.5125,-0.01 3.7625,-0.285 5,-0.6167 z m 30.25,-4.3697 c 3.73029,-3.7303 2.04911,-9 -2.87126,-9 -5.15323,0 -8.03136,5.9545 -4.55731,9.4285 2.14021,2.1403 5.02629,1.9737 7.42857,-0.4285 z m 51.00001,-6.4806 c 11.443,-1.3009 11.1396,-1.1224 10.8011,-6.355 -0.2671,-4.1291 -0.5978,-4.7111 -2.9314,-5.1593 l -2.6303,-0.5051 -0.03,-29.327 c -0.016,-16.1299 -0.2918,-29.5888 -0.6117,-29.9087 -0.3199,-0.3199 -3.6228,-0.1728 -7.3397,0.327 l -6.758,0.9087 v 5 c 0,4.6112 0.1749,4.9756 2.25,4.6871 l 2.25,-0.3129 v 25.4545 25.4544 l -2.5,0.6275 c -2.1834,0.548 -2.5,1.1738 -2.5,4.9418 0,4.7965 0.6057,5.8787 2.9277,5.2309 0.8647,-0.2413 4.0473,-0.72 7.0723,-1.0639 z m 36,-4.5362 c 9.7923,-1.5089 10.7757,-1.8261 12.9723,-4.1839 1.947,-2.0898 2.0277,-3.4169 2.0277,-33.3329 0,-37.5994 0.9453,-35.1267 -13.0264,-34.072 -16.274,1.2285 -16.9736,2.2123 -16.9736,23.8673 0,14.2814 0.1494,15.5215 2.1256,17.6427 1.9899,2.136 2.6278,2.237 10,1.5844 l 7.8744,-0.697 v 8.9875 c 0,9.857 -0.2238,10.1721 -7.25,10.207 -2.5946,0.013 -2.75,-0.2406 -2.75,-4.4863 0,-4.4557 -0.034,-4.5 -3.4182,-4.5 -6.2166,0 -6.5818,0.4736 -6.5818,8.5344 0,6.7173 0.2171,7.4912 2.6349,9.393 3.0146,2.3713 3.5383,2.416 12.3651,1.0558 z m -5,-49.3694 c 0,-5.7727 0.3375,-10.6954 0.75,-10.9395 0.4125,-0.244 2.6776,-0.7626 5.0336,-1.1526 l 4.2836,-0.7089 -0.2836,11.3436 -0.2836,11.3436 -4.75,0.3048 -4.75,0.3047 z m 51.2215,44.5359 c 5.0232,-0.5587 7.3605,-1.3479 9.25,-3.123 2.4794,-2.3292 2.5285,-2.6574 2.5285,-16.8866 0,-13.343 -0.1683,-14.6903 -2.0899,-16.7358 l -2.0899,-2.2246 2.0899,-2.0899 c 1.8956,-1.8956 2.0899,-3.245 2.0899,-14.5173 0,-12.1362 -0.06,-12.4745 -2.555,-14.4372 -2.1992,-1.7299 -3.557,-1.935 -9.75,-1.473 -16.5452,1.2343 -17.695,2.4876 -17.695,19.288 0,9.7897 0.2327,11.2824 2.0406,13.0903 l 2.0406,2.0406 -2.0406,2.5942 c -1.8342,2.3319 -2.0406,4.0152 -2.0406,16.645 0,13.0498 0.1549,14.2155 2.1743,16.3651 2.3811,2.5346 4.6016,2.7372 16.0472,1.4642 z m -7.792,-10.0536 c -0.2362,-0.2362 -0.4295,-5.252 -0.4295,-11.1462 0,-11.8021 0.06,-11.9006 7.25,-11.9363 l 2.75,-0.014 v 11.3993 11.3993 l -4.5705,0.3635 c -2.5138,0.1999 -4.7638,0.1702 -5,-0.066 z m -0.2184,-41.8461 0.2889,-8.75 4.75,-0.3048 4.75,-0.3048 v 9.0548 9.0548 h -5.0389 -5.039 z m 58.7174,48.287 c 1.556,-0.8047 3.1087,-2.1915 3.4503,-3.0818 0.3417,-0.8904 0.6212,-7.8322 0.6212,-15.4262 0,-12.0587 -0.2398,-14.1036 -1.8935,-16.1459 -1.8581,-2.2946 -1.8581,-2.3835 0,-4.7456 1.6072,-2.0433 1.8935,-4.1357 1.8935,-13.8381 0,-6.287 -0.4405,-12.254 -0.9789,-13.26 -1.6011,-2.9917 -5.9624,-3.8527 -15.9418,-3.147 -12.7345,0.9005 -13.0793,1.3545 -13.0793,17.2183 0,10.6348 0.2153,12.1046 2.0406,13.9299 l 2.0406,2.0406 -2.0406,2.5942 c -1.8342,2.3319 -2.0406,4.0152 -2.0406,16.645 0,13.0498 0.1549,14.2155 2.1743,16.3651 1.9729,2.1001 3.0427,2.3145 11.5497,2.3145 6.2724,0 10.3117,-0.4842 12.2045,-1.463 z m -15.9285,-20.037 v -11.5 h 5 5 v 11.5 11.5 h -5 -5 z m 0,-30.4452 v -9.0548 h 5.0389 5.039 l -0.289,8.75 -0.2889,8.75 -4.75,0.3048 -4.75,0.3047 z m -520.28763,6.9467 c 5.4423,-6.6902 12.07107,-12.1135 22.12906,-18.1047 30.32185,-18.0615 60.28357,-28.1649 104.65856,-35.2921 38.17452,-6.1313 307.28471,-46.127 381.42481,-56.6882 30.2469,-4.3086 43.8997,-5.8862 44.9897,-5.1987 0.8606,0.5429 2.4695,3.2919 3.5751,6.109 6.1576,15.6881 17.4345,23.0772 36.51038,23.9231 28.41951,1.2603 57.21241,-13.3166 78.60671,-39.7959 3.4071,-4.2169 6.7344,-7.2091 9.1275,-8.2082 2.0856,-0.8708 9.789,-2.0659 17.2658,-2.6788 7.425,-0.6086 18.9,-1.9971 25.5,-3.0857 43.8996,-7.2407 137.349,-18.0042 204,-23.4968 58.5206,-4.8226 80.4147,-9.5806 106.8422,-23.2191 24.9678,-12.8851 45.5209,-34.10155 58.9539,-60.85654 16.7475,-33.35683 20.9436,-72.07361 11.6977,-107.93309 -5.0477,-19.57665 -12.6182,-34.85249 -26.3959,-53.26149 -8.1258,-10.85721 -9.2148,-13.20915 -9.9468,-21.4824 -0.6443,-7.28204 -3.4909,-11.96771 -9.3604,-15.40743 -8.8936,-5.21199 -18.7151,-2.27638 -23.1696,6.92525 -2.8745,5.93797 -2.6749,9.3422 1.0091,17.21479 4.6599,9.95798 4.0472,12.9331 -7.2154,35.03547 -5.0446,9.9 -11.2242,21.6 -13.7324,26 -13.1889,23.1371 -30.8116,45.5 -35.8554,45.5 -3.8004,0 -4.6749,-3.26582 -4.0028,-14.94852 0.7661,-13.31675 2.3925,-21.75841 8.7715,-45.52728 11.4927,-42.82256 22.4474,-74.7758 39.0226,-113.82263 4.4417,-10.46357 4.0109,-11.10515 -7.724,-11.50348 -13.2695,-0.45043 -44.016,2.44125 -51.9222,4.88323 -9.7997,3.02684 -16.2547,9.60264 -19.8344,20.20556 -0.5267,1.56013 -1.2628,1.26549 -5.8012,-2.32188 -10.8951,-8.61211 -20.6942,-11.48095 -36.3365,-10.63814 -12.6242,0.68019 -19.6753,2.53284 -31,8.14515 -11.4777,5.68813 -20.1707,12.29721 -30.4291,23.13453 -12.5032,13.20877 -21.8367,28.32959 -39.8415,64.54582 -17.2335,34.66471 -24.9364,47.41845 -39.8936,66.05223 -8.6313,10.75286 -28.1049,31.35962 -28.8917,30.57283 -0.1788,-0.17884 1.6323,-8.63941 4.0247,-18.80129 13.6234,-57.86631 27.3713,-104.56027 41.2804,-140.20655 8.2615,-21.17264 8.7185,-20.21358 -9.2047,-19.31797 -24.853,1.24188 -48.1463,4.33617 -53.646,7.12634 -3.1083,1.57692 -5.1428,4.51167 -6.8785,9.92205 -2.5441,7.9302 -2.6956,8.02528 -6.8357,4.28979 -11.9974,-10.82487 -26.5979,-13.40923 -46.8061,-8.2849 -38.4723,9.75571 -70.63489,45.37207 -89.84679,99.49511 -15.3258,43.17522 -47.3805,83.18276 -79.8199,99.62343 -9.4617,4.79528 -23.5464,9.34302 -31.1292,10.05111 -12.2333,1.14237 -19.0161,-4.78619 -22.0934,-19.31097 -1.6445,-7.76199 -1.8457,-18.58593 -0.5347,-28.76235 1.2388,-9.61577 2.6182,-10.75526 18.1834,-15.02121 54.8496,-15.0326 86.8135,-41.75587 86.8135,-72.58001 0,-21.30765 -15.1676,-39.05098 -38.004,-44.45765 -19.4235,-4.59864 -39.9992,-2.19031 -57.4471,6.72401 -14.9397,7.63287 -32.1004,23.34696 -42.5396,38.95373 -8.3829,12.5327 -12.842,21.72354 -21.93611,45.21381 -12.87473,33.25575 -21.39449,51.0806 -36.58041,76.53271 -8.0668,13.52023 -18.79085,27.7282 -23.66951,31.35902 -2.64645,1.96954 -2.78443,1.97525 -4.75,0.19643 C 715.6841,657.30912 715,655.43493 715,652.97599 c 0,-14.71827 12.99062,-61.69143 34.00953,-122.976 9.38301,-27.35793 10.08263,-29.92864 9.63502,-35.4031 -0.30173,-3.69022 -1.21621,-6.87659 -2.43948,-8.5 -1.93982,-2.57432 -2.06875,-2.5957 -14.83095,-2.45945 -14.2629,0.15229 -33.95635,2.29726 -54.14906,5.89782 -20.82758,3.71377 -24.23186,6.17887 -42.92528,31.08306 -6.37075,8.48738 -11.72535,15.28944 -11.89911,15.11568 -0.17376,-0.17377 1.69,-7.17015 4.1417,-15.54752 2.4517,-8.37737 4.45763,-16.05169 4.45763,-17.05405 0,-1.00235 -0.89378,-2.63132 -1.98617,-3.61992 -1.77992,-1.61081 -3.25968,-1.72566 -14.25,-1.10604 -31.8071,1.79325 -66.15291,7.04765 -74.00596,11.32182 -9.53446,5.1893 -27.98595,27.62174 -42.30225,51.42904 -6.32075,10.51108 -8.01615,12.72282 -8.25018,10.76277 -0.40724,-3.41072 4.36951,-17.58256 12.66095,-37.56294 8.66254,-20.87466 8.92917,-21.86103 6.29085,-23.27302 -3.58971,-1.92115 -44.77003,0.78177 -61.15724,4.01413 -10.4929,2.06972 -11.01196,2.87473 -21.09291,32.71298 C 413.35269,617.52906 380,734.27013 380,746.99753 c 0,8.1613 1.36836,8.3969 23.5,4.0445 8.25,-1.6224 21.975,-3.8773 30.5,-5.0109 8.525,-1.1337 16.28798,-2.3099 17.25106,-2.6139 2.39044,-0.7545 3.14551,-2.3798 8.76587,-18.8686 10.53332,-30.9021 23.2825,-60.38834 43.04264,-99.54864 14.69987,-29.13194 22.83843,-43.07311 33.18084,-56.83806 8.22778,-10.95053 11.17893,-12.50397 14.40391,-7.58203 1.70288,2.59892 1.68768,3.10126 -0.40344,13.33278 -1.19515,5.84765 -6.93292,26.37202 -12.7506,45.6097 -18.82031,62.23425 -29.46793,101.44605 -29.82569,109.83855 -0.26288,6.1667 0.94167,6.382 18.22381,3.2576 8.31031,-1.5024 22.42259,-3.6182 31.36063,-4.7018 8.93803,-1.0837 17.38844,-2.4214 18.77869,-2.9727 3.65607,-1.45 4.86168,-3.9819 6.04608,-12.6973 1.62621,-11.9665 3.53485,-18.3423 11.11878,-37.1419 22.14718,-54.9003 48.0379,-104.21726 67.13831,-127.88595 C 668.43604,537.17522 673,537.6179 673,548.44771 c 0,6.57542 -0.92163,10.0442 -13.16572,49.55228 -3.83517,12.375 -8.62855,29.025 -10.65194,37 -3.268,12.88051 -3.67909,15.89611 -3.68062,27 -0.002,11.98034 0.12123,12.72194 2.95584,17.83934 8.29483,14.9749 30.57083,26.1288 52.54244,26.3088 13.37183,0.1095 18.2796,-2.1815 30.0582,-14.0318 10.44871,-10.5123 19.04091,-22.76273 30.4418,-43.40287 3.85,-6.97003 7.44327,-12.53418 7.98504,-12.36478 0.54178,0.1694 1.29301,1.62275 1.6694,3.22966 4.43904,18.95107 8.63417,28.00115 16.84589,36.34139 15.30188,15.5413 38.29258,18.105 72.62898,8.0988 35.4559,-10.3323 63.7394,-31.15671 90.1773,-66.39502 3.0973,-4.12834 5.3328,-6.32637 5.5937,-5.5 0.2391,0.75707 1.1959,4.64173 2.1264,8.63259 6.2591,26.84609 25.0417,41.38675 53.46059,41.38675 13.5898,0 22.7328,-2.91321 33.696,-10.73644 L 1052,646.89894 v 3.08264 c 0,7.44105 -5.2815,14.43775 -14.8401,19.65958 -15.3274,8.37327 -22.3661,12.75377 -31.0144,19.30187 -5.027,3.8063 -9.92879,7.1587 -10.89279,7.4498 -0.964,0.2911 -31.0027,5.0375 -66.7527,10.5475 -35.75,5.51 -107.075,16.5241 -158.50001,24.4757 -139.92765,21.6364 -195.21578,29.9514 -240,36.0944 -62.70053,8.6005 -83.73469,12.3797 -120.25476,21.6063 -33.62018,8.4939 -58.11257,17.0641 -76.22065,26.6707 -9.63831,5.1133 -12.28064,8.0641 -11.17295,12.4775 1.87848,7.4844 26.84142,34.847 43.84556,48.0603 13.04161,10.1342 28.72472,19.6619 32.37597,19.6689 2.482,0 3.85535,-0.9557 7.13921,-4.9926 z m 713.80992,-212.9655 c -1.2184,-1.9714 5.0939,-23.22012 9.5168,-32.03604 3.982,-7.93706 8.392,-13.02424 17.4609,-20.14216 14.1855,-11.1338 27.1227,-25.26869 39.9128,-43.60784 3.1645,-4.5375 6.094,-8.25 6.5099,-8.25 1.2559,0 3.0763,4.88474 3.0921,8.29705 0.025,5.41294 2.8917,15.76679 6.2696,22.64416 8.5039,17.31394 28.7753,28.43614 51.7156,28.37459 19.1276,-0.0513 35.519,-9.28253 49.5237,-27.89043 3.1353,-4.16579 6.3205,-7.81208 7.0782,-8.10285 0.7966,-0.3057 4.4208,2.28878 8.593,6.1516 12.8717,11.9172 24.9228,17.5266 42.155,19.62183 10.7895,1.31188 20.675,0.43294 26.148,-2.32486 6.5669,-3.30898 21.3145,-19.08569 29.6987,-31.77109 12.7869,-19.34669 27.1714,-47.48516 40.425,-79.07826 2.5223,-6.01262 4.9811,-11.17622 5.4641,-11.47468 1.3122,-0.81101 7.55,9.49196 11.0719,18.28762 5.5899,13.96005 7.24,24.37233 7.2526,45.76532 0.011,17.94373 -0.1427,19.50034 -2.7584,28 -8.7693,28.49637 -28.1042,47.85249 -57.3357,57.39866 -16.7724,5.4774 -29.1933,7.14976 -71.3161,9.60208 -43.6893,2.54352 -94.9127,7.15475 -161.3603,14.52598 -34.5732,3.83532 -64.1341,6.97332 -65.691,6.97332 -1.5569,0 -3.0987,-0.4338 -3.4264,-0.964 z m -88.7793,-67.12008 c -1.9625,-1.14284 -5.0925,-6.89347 -6.1567,-11.3114 -3.809,-15.81292 7.5558,-62.82509 22.9738,-95.03445 12.2557,-25.60318 26.6173,-44.13235 35.7632,-46.14112 3.7555,-0.82484 7.7387,2.00824 9.3703,6.66467 5.7127,16.3037 -8.6936,70.15958 -30.2547,113.10279 -7.9761,15.88613 -10.422,19.80209 -16.2792,26.06389 -6.6856,7.14745 -11.2147,9.10272 -15.4167,6.65562 z m 241.2465,-26.6746 c -8.7819,-4.38242 -11.1153,-19.39509 -6.4877,-41.74136 5.3818,-25.98872 12.5685,-47.02869 23.0559,-67.5 5.9866,-11.6856 14.9827,-25.72217 19.7912,-30.88 7.5356,-8.08306 17.2193,-11.49731 20.9031,-7.37 8.5191,9.54465 0.7053,51.43505 -17.7577,95.20144 -10.517,24.93046 -18.084,38.27383 -27.0694,47.73323 -5.8477,6.15615 -7.7981,6.87083 -12.4354,4.55669 z m -422.62869,-36.7436 c -0.8734,-2.27581 0.3094,-5.89355 5.5789,-17.06502 9.1099,-19.31285 17.8903,-30.71684 30.4671,-39.57054 7.0719,-4.97838 11.4561,-6.07632 15.5387,-3.89137 2.4213,1.29585 5.0545,8.11136 5.0545,13.08265 0,12.27933 -17.6253,30.02524 -43.1745,43.47001 -11.1198,5.85158 -12.5791,6.28229 -13.4647,3.97427 z M 243.00763,785.61273 c 31.93797,-7.2901 58.57829,-22.7322 82.63585,-47.9001 32.42759,-33.9242 55.71068,-81.13749 68.25451,-138.40592 6.96697,-31.80749 9.5352,-57.70289 8.02125,-80.87821 -1.47593,-22.59345 -2.39413,-23.69175 -24.56642,-29.38529 -2.28094,-0.58571 -4.38512,-1.685 -4.67594,-2.44286 -0.29081,-0.75787 1.92411,-6.26548 4.92206,-12.23915 10.1061,-20.13723 15.70853,-41.62499 15.60741,-59.86121 -0.11472,-20.69153 -5.98896,-35.32598 -19.68173,-49.03295 C 358.10994,350.03636 337.91864,342.92378 305,341.32856 c -62.43345,-3.02548 -122.74865,32.67143 -166.71997,98.67143 -3.84749,5.775 -7.74603,11.9625 -8.66342,13.75 -1.16285,2.26579 -2.37673,3.25 -4.0084,3.25 -1.92604,0 -2.87802,-1.20229 -5.37666,-6.79039 -4.43633,-9.92165 -8.09789,-22.45993 -9.55221,-32.70961 -1.21238,-8.54461 -1.40771,-9.01544 -3.86035,-9.30505 -2.12662,-0.25112 -3.88295,1.12725 -9.934131,7.79633 -17.51133,19.29945 -33.88486,48.22831 -33.88486,59.86797 0,9.94196 11.48719,37.07259 21.04097,49.69487 8.21171,10.84918 8.36251,11.94112 4.04022,29.25437 -11.71977,46.94434 -13.71156,84.82892 -6.51479,123.91375 6.06985,32.9645 18.065795,58.1885 36.314901,76.3596 13.10946,13.0535 27.506,21.8293 44.66288,27.2255 12.00344,3.7753 19.29313,4.907 36.95582,5.7375 21.18234,0.9959 30.859,0.455 43.50763,-2.4321 z M 209,753.56703 c -8.01197,-2.2329 -15.34474,-6.7043 -22.06951,-13.4575 -25.69364,-25.8022 -34.80123,-77.99035 -25.32371,-145.10954 1.56787,-11.10357 2.63478,-14.80886 4.64162,-16.12001 0.52194,-0.34101 10.96647,-0.39001 23.21007,-0.10888 23.49488,0.53947 34.38687,-0.28999 51.31243,-3.90759 26.01969,-5.56134 50.71361,-15.86782 75.16779,-31.37271 5.63049,-3.56994 10.70932,-6.49081 11.28629,-6.49081 1.51219,0 0.11931,16.68448 -2.71211,32.48669 -10.86503,60.63804 -29.98935,114.29975 -53.28458,149.51335 -7.31596,11.0589 -22.88908,26.6129 -30.35971,30.3223 -11.03478,5.4791 -22.13467,6.9575 -31.86858,4.2447 z m 7,-241.30247 c -6.63126,-0.47703 -25.30281,-4.30875 -26.75,-5.48955 -2.0972,-1.71116 -1.46521,-4.15638 4.17876,-16.16808 25.55838,-54.3943 56.22702,-88.68916 96.57124,-107.98971 19.01287,-9.09571 39.39135,-12.85722 51.47745,-9.50185 5.34888,1.48497 11.02208,7.32684 12.54779,12.92087 1.48027,5.42741 0.67976,20.95627 -1.49727,29.04491 -5.13938,19.0951 -18.05874,39.38348 -36.67317,57.59101 -13.49137,13.19646 -21.61202,18.95361 -37.22464,26.39049 C 259.6317,508.11233 233.84384,513.5482 216,512.26456 Z m 373.6382,-83.78754 c 44.40346,-10.16027 53.63451,-11.98791 87.8618,-17.3956 129.65101,-20.484 255.58641,-33.60855 384.5,-40.07122 54.4449,-2.72942 73.4733,-3.19113 152.8094,-3.7078 79.5305,-0.51793 127.6299,0.15874 181.6906,2.55605 8.8,0.39023 18.475,0.52238 21.5,0.29366 l 5.5,-0.41586 -7.5,-1.83627 c -42.5871,-10.42688 -95.3081,-19.16887 -143.5,-23.7946 -85.2547,-8.18323 -153.1047,-8.19001 -274.99999,-0.0275 -173.294,11.60433 -322.8025,39.58156 -408.84922,76.50712 -13.54889,5.81429 -30.32114,14.3326 -28.33537,14.39101 0.44849,0.0132 13.64374,-2.91136 29.32278,-6.49899 z M 450.2107,317.39497 c 2.65261,-0.52513 2.7169,-0.71192 3,-8.7158 l 0.2893,-8.17918 7.5,-1.13783 c 4.125,-0.6258 7.72407,-0.92673 7.99794,-0.66872 0.27387,0.258 1.41321,3.69503 2.53186,7.63782 1.1458,4.03848 2.56583,7.12506 3.25206,7.06873 0.66998,-0.055 3.13064,-0.17439 5.46814,-0.26531 7.1817,-0.27935 7.16382,-0.17672 2.82006,-16.19009 -4.75963,-17.54649 -16.09353,-57.34289 -20.06241,-70.4446 -0.99967,-3.3 -2.59464,-8.8125 -3.54439,-12.25 -1.95978,-7.09322 -1.29382,-6.85148 -13.46326,-4.88706 l -7.5,1.21066 0.23512,52.95322 c 0.12931,29.12427 0.47156,53.5694 0.76056,54.32251 0.51541,1.34316 1.94031,1.28273 10.71502,-0.45435 z m 2.44298,-33.07463 c -0.35952,-0.35953 -0.62516,-10.14118 -0.59029,-21.73702 0.0461,-15.34263 0.34092,-20.40261 1.08267,-18.58333 2.18717,5.3645 11.57917,39.05054 10.98437,39.39736 -1.33405,0.77786 -10.85609,1.54364 -11.47675,0.92299 z m 669.80662,31.70421 c 1.7579,-1.08649 3.727,-3.14013 4.3755,-4.56363 1.7136,-3.76078 5.3811,-27.41835 4.8166,-31.06916 -0.2644,-1.70953 -5.2473,-10.99934 -11.0731,-20.64403 l -10.5925,-17.53579 1.2566,-8.85597 1.2566,-8.85598 6,0.31949 c 3.3,0.17572 6.4238,0.7345 6.9417,1.24174 0.5889,0.5767 0.5672,3.18733 -0.058,6.9674 -0.6975,4.21794 -0.6769,6.31303 0.068,6.93143 0.5873,0.48747 3.7962,1.19497 7.1308,1.57223 l 6.0628,0.68594 1.2403,-8.35912 c 1.7131,-11.54551 1.6726,-14.35801 -0.2491,-17.29081 -2.7133,-4.14096 -5.4973,-5.2084 -18.3938,-7.05244 -18.9489,-2.70947 -21.0266,-1.14195 -23.6225,17.82245 -2.6342,19.24442 -3.0756,17.43752 9.2868,38.01046 l 10.9072,18.15123 -1.2421,8.28491 c -0.6832,4.55669 -1.6539,8.67924 -2.1572,9.16122 -0.5246,0.50239 -3.4049,0.43884 -6.7501,-0.14893 l -5.8349,-1.02526 0.6912,-6.13597 c 0.3802,-3.37478 0.7559,-6.56095 0.835,-7.08038 0.1699,-1.11641 -4.36,-2.27117 -9.561,-2.43728 -4.1363,-0.1321 -3.6518,-1.23232 -5.8359,13.25085 -1.7779,11.79015 1.1963,16.06117 12.3375,17.71672 3.4117,0.50697 8.4531,1.31712 11.2031,1.80033 7.3626,1.29368 7.4889,1.28375 10.9603,-0.86165 z m -75.9772,-8.99727 c 0.3307,-0.53499 -0.3262,-11.44469 -1.4596,-24.24379 -1.1334,-12.79909 -1.7149,-23.3934 -1.2921,-23.5429 7.9638,-2.81634 8.8038,-4.87106 11.6851,-28.58367 3.5677,-29.36197 3.4978,-29.48057 -18.8764,-32.06235 -16.7833,-1.93663 -20.5408,-1.99968 -20.538,-0.34458 0,0.6875 -0.8903,9.8 -1.981,20.25 -5.5985,53.63763 -7.173,70.21073 -7.3391,77.25038 l -0.182,7.71618 5.5,0.69763 c 3.025,0.38369 5.8658,0.34039 6.313,-0.0962 0.6482,-0.63301 5.6471,-40.96465 5.6788,-45.81796 0.01,-1.44871 3.6108,-1.70202 4.4685,-0.31431 0.318,0.51464 1.0271,5.80214 1.5756,11.75 0.5486,5.94787 1.1914,12.38931 1.4286,14.31431 0.2372,1.925 0.7149,7.55 1.0615,12.5 0.3467,4.95 0.9327,9.30909 1.3022,9.68687 0.3695,0.37778 2.6968,0.86166 5.1718,1.07529 2.475,0.21363 5.0359,0.46704 5.691,0.56313 0.655,0.0961 1.4615,-0.26301 1.7921,-0.798 z M 1029.25,242.27659 c -1.7875,-0.22182 -3.2412,-0.93731 -3.2305,-1.58996 0.04,-2.41639 2.9246,-26.96301 3.1975,-27.20646 0.1557,-0.13886 3.208,0.0338 6.783,0.38367 7.5823,0.74207 7.1121,-0.81539 5.0977,16.88615 l -1.3939,12.25 -3.6019,-0.16004 c -1.9811,-0.088 -5.0644,-0.34153 -6.8519,-0.56336 z m -483.23366,62.57628 c 7.06829,-0.80375 10.81043,-1.71538 12.5014,-3.04549 2.38216,-1.87381 4.72653,-7.8479 3.97603,-10.13199 -0.21242,-0.64647 -0.87251,-6.78534 -1.46686,-13.64194 -0.65799,-7.5906 -1.65479,-13.34278 -2.54858,-14.70688 -0.80737,-1.2322 -7.92667,-8.57107 -15.82067,-16.30861 l -14.35273,-14.06826 -1.07295,-8.72485 c -0.59012,-4.79867 -0.77123,-9.0168 -0.40247,-9.37362 0.36877,-0.35682 3.44938,-0.9596 6.84579,-1.33952 l 6.17531,-0.69075 0.56133,4.33951 c 0.30874,2.38674 0.67985,5.46452 0.8247,6.83952 0.25139,2.38635 0.54975,2.49547 6.56296,2.4004 3.46478,-0.0548 6.67379,-0.50478 7.13112,-1 1.1258,-1.21905 -1.17051,-20.31288 -2.79435,-23.23506 -0.71354,-1.28406 -2.78179,-2.95489 -4.59609,-3.71296 -3.21632,-1.34386 -6.20993,-1.23064 -25.30007,0.9569 -4.48484,0.51391 -8.15163,3.13448 -9.75487,6.97156 -1.13454,2.71533 -1.12304,5.11416 0.0727,15.17221 0.78116,6.57082 1.68116,13.46597 2.00001,15.32256 0.46474,2.70614 3.72136,6.47426 16.4209,19 l 15.8412,15.62439 0.51212,8.49447 c 0.28167,4.67196 0.30665,8.69995 0.0555,8.9511 -0.25115,0.25114 -3.02863,0.74703 -6.1722,1.10198 -6.55231,0.73983 -7.17183,0.26342 -7.21391,-5.54755 -0.0551,-7.60843 -0.69812,-8.55865 -5.36658,-7.93047 -9.64647,1.29803 -8.94889,0.42674 -8.18906,10.22821 0.84038,10.84045 1.9971,14.61906 5.26123,17.18662 2.9834,2.34674 6.12703,2.48118 20.30909,0.86852 z m 82.44067,-7.43322 c 8.50343,-0.6016 9.13085,-0.80752 12.38973,-4.0664 l 3.43272,-3.43272 -0.51441,-10.85299 c -0.28292,-5.96914 -0.75409,-11.2408 -1.04703,-11.71479 -0.29294,-0.47398 -3.38643,-0.63476 -6.87443,-0.35728 l -6.34181,0.50452 0.33233,7.10836 0.33232,7.10835 -3.20821,0.64165 c -1.76452,0.3529 -4.7184,0.64164 -6.56417,0.64164 -4.02976,0 -4.03524,-0.0178 -4.91774,-16 -0.34925,-6.325 -0.80125,-12.85 -1.00443,-14.5 -0.64578,-5.24404 -3.48461,-45.82126 -3.22291,-46.06694 0.13807,-0.12961 3.17603,-0.39257 6.75103,-0.58436 l 6.5,-0.3487 0.89929,7.34145 0.89929,7.34145 6.51432,-0.58839 c 3.58287,-0.32361 6.70433,-0.77841 6.93658,-1.01066 0.23224,-0.23224 0.10256,-4.93175 -0.2882,-10.44336 -0.79105,-11.15783 -2.59446,-15.47122 -7.21174,-17.24898 -1.86547,-0.71825 -6.81191,-0.77158 -15.3839,-0.16585 -19.398,1.37072 -21.32395,3.49015 -19.82862,21.82056 0.49146,6.02458 1.13052,13.87878 1.42014,17.45378 0.28961,3.575 0.98386,11.9 1.54277,18.5 0.55892,6.6 1.27156,15.15 1.58364,19 1.60474,19.79658 2.23105,23.77506 4.14969,26.35998 2.68421,3.61635 6.10816,5.16254 10.26674,4.63629 1.925,-0.24361 7.53066,-0.72808 12.45701,-1.07661 z m 330.5757,0.0634 c 5.0482,-2.61049 5.6388,-4.69914 7.489,-26.48307 0.2569,-3.025 0.9412,-11.125 1.5206,-18 0.5795,-6.875 1.4741,-17.45 1.988,-23.5 2.2744,-26.77387 2.3173,-28.92704 0.6411,-32.1685 -2.2723,-4.39427 -7.2119,-5.9695 -21.2587,-6.77937 -12.0229,-0.6932 -12.1037,-0.68305 -15.1832,1.90821 -4.0651,3.42053 -4.9411,6.65731 -5.6946,21.03966 -0.3457,6.6 -1.2558,21.45 -2.0223,33 -3.0783,46.38243 -3.1855,44.45169 2.7121,48.83 2.6476,1.9655 3.7478,2.12292 24.575,3.51616 1.2648,0.0846 3.6197,-0.52878 5.233,-1.36309 z m -19.3863,-15.19234 c -1.6029,-0.41273 -1.7756,-1.17458 -1.2772,-5.634 0.3169,-2.8362 0.8424,-9.43173 1.1676,-14.65673 0.3253,-5.225 0.7541,-10.85 0.9531,-12.5 0.1989,-1.65 0.6805,-8.625 1.0702,-15.5 0.3898,-6.875 0.8387,-13.175 0.9978,-14 0.159,-0.825 0.3235,-4.3125 0.3656,-7.75 l 0.076,-6.24999 h 6.5314 c 4.9121,0 6.6755,0.37562 7.1128,1.51512 0.3197,0.83332 -0.682,18.15832 -2.226,38.5 l -2.8075,36.98488 -5.0553,-0.116 c -2.7805,-0.0638 -5.8895,-0.33077 -6.909,-0.59327 z m -223.8526,10.73041 5.29381,-0.0211 -0.29381,-7.25 -0.29381,-7.25 -10.74757,-0.0809 c -5.91116,-0.0445 -10.99494,-0.32827 -11.29728,-0.63061 -0.30234,-0.30234 -0.81959,-8.02844 -1.14944,-17.1691 l -0.59973,-16.61939 4.89701,-0.11535 c 2.69336,-0.0634 5.34701,-0.2199 5.89701,-0.34769 0.55,-0.12778 2.48221,-0.30087 4.29381,-0.38465 l 3.29381,-0.15231 -0.29381,-7.25 -0.29381,-7.25 h -9 -9 l -0.86063,-12.24052 c -0.47334,-6.73229 -0.59996,-12.91979 -0.28138,-13.75 0.46806,-1.21974 2.69665,-1.50948 11.61063,-1.50948 H 718 v -7.5 -7.5 h -11.34912 c -6.24202,0 -14.84159,0.29522 -19.11015,0.65605 l -7.76103,0.65604 0.6381,11.59396 c 0.7591,13.7926 1.26288,24.69913 2.59101,56.09395 0.54678,12.925 1.27012,27.04179 1.60743,31.37064 l 0.61328,7.87064 12.63524,-0.59951 c 6.94938,-0.32973 15.01745,-0.60902 17.92905,-0.62064 z m 163.1847,-1.71065 c 2.7123,-2.42341 3.2806,-3.79882 4.0552,-9.81443 0.4955,-3.84783 0.9156,-11.55905 0.9336,-17.13604 l 0.033,-10.13999 -4.6571,-6.36001 c -2.5615,-3.49801 -8.4286,-11.18201 -13.038,-17.07557 l -8.3809,-10.71555 0.288,-9.28445 0.288,-9.28444 3.4328,-0.32699 c 1.8881,-0.17985 4.9256,-0.047 6.75,0.29531 l 3.3172,0.62231 v 6.95468 c 0,3.82508 0.1125,6.9687 0.25,6.98583 0.1375,0.0171 3.2299,0.28678 6.8719,0.59922 l 6.622,0.56808 0.4545,-3.09694 c 0.25,-1.70332 0.4201,-7.1376 0.3781,-12.07619 -0.071,-8.31768 -0.2707,-9.17349 -2.7127,-11.61574 -3.2498,-3.25017 -8.3541,-4.30893 -21.0487,-4.36602 -11.5544,-0.052 -13.8685,0.68867 -16.7576,5.36339 -2.0598,3.33285 -2.1759,4.52861 -1.8766,19.32288 l 0.3191,15.77018 12.7848,16.45454 12.7848,16.45454 -0.2848,9.04546 -0.2848,9.04546 -6.75,0.29569 -6.75,0.29569 v -7.54569 -7.54569 h -6.4547 -6.4547 l -0.6495,3.46206 c -0.3572,1.90414 -0.4901,7.29408 -0.2953,11.97764 0.3218,7.73568 0.608,8.76948 3.125,11.28794 2.9255,2.92724 4.9213,3.27592 23.3913,4.08679 6.659,0.29234 7.3837,0.11643 10.3164,-2.50395 z M 773.26215,264.74999 c -0.13081,-14.7125 0.0942,-26.7494 0.5,-26.74866 0.40582,7.4e-4 3.3993,12.15074 6.65219,27 l 5.91434,26.99866 h 7.33563 7.3357 l 0.1453,-39.25 c 0.08,-21.5875 0.1924,-45.55 0.25,-53.25 l 0.1047,-14 -7.25,-0.29381 L 787,184.91237 v 27.21048 c 0,14.96576 -0.22934,26.98113 -0.50964,26.70083 -0.28031,-0.28031 -2.99239,-11.71781 -6.02686,-25.41667 -3.03447,-13.69886 -5.76045,-25.69452 -6.05774,-26.65702 -0.45266,-1.46551 -1.7746,-1.75 -8.13156,-1.75 h -7.59103 l 0.64442,53.25 c 0.35444,29.2875 0.65073,53.38306 0.65842,53.54569 0.008,0.16263 3.05149,0.16263 6.76399,0 l 6.75,-0.29569 z"
       id="path179" />
  </g>
</svg>
