<?xml version="1.0" encoding="UTF-8" standalone="no"?>
<!-- Created with Inkscape (http://www.inkscape.org/) -->

<svg
   version="1.1"
   id="svg264"
   width="1133.6614"
   height="199.48988"
   viewBox="0 0 1133.6614 199.48988"
   xmlns="http://www.w3.org/2000/svg"
   xmlns:svg="http://www.w3.org/2000/svg">
  <defs
     id="defs268" />
  <g
     id="g270"
     transform="translate(-1.9269449,-4.0062404)">
    <path
       style="fill:#000000;stroke-width:0.32"
       d="m 112.27553,203.30018 c -20.920739,-1.81613 -40.352144,-9.84685 -56.319997,-23.27627 -3.89663,-3.27717 -10.374038,-9.9146 -13.561552,-13.89657 -8.139587,-10.16829 -15.260127,-24.09907 -18.35423,-35.90861 l -0.878469,-3.35293 -2.242875,-0.3618 c -6.717334,-1.08357 -18.4028735,-4.40539 -18.4028735,-5.23134 0,-0.22414 -0.1559077,-1.95662 -0.3464615,-3.84997 -0.1905539,-1.89334 -0.2894664,-3.49944 -0.2198057,-3.5691 0.069661,-0.0697 1.9175684,0.22179 4.1064614,0.64766 4.1347223,0.80446 11.7018263,1.77168 13.8660793,1.77235 l 1.246273,3.9e-4 -0.21132,-2.16 C 19.804791,102.33922 20.814297,89.620462 23.802368,78.262168 27.147861,65.54523 33.837917,52.243331 42.183901,41.713993 45.604848,37.398107 53.880227,29.122805 58.195533,25.702509 88.398986,1.7633661 129.29984,-2.7392659 163.95553,14.05976 c 18.9385,9.18026 35.04168,24.785331 44.75229,43.36798 0.90624,1.73422 1.74332,3.156082 1.86017,3.159692 0.53596,0.01654 5.52692,-9.846421 7.65679,-15.131087 1.60144,-3.973517 1.21763,-4.038189 4.04887,0.682259 l 1.79011,2.984611 -1.01344,3.678839 c -1.28967,4.681533 -3.80032,11.386645 -6.03179,16.10885 l -1.74044,3.683088 1.12822,4 c 1.5657,5.551062 2.63523,11.129274 3.25179,16.96 0.6961,6.582968 0.47578,18.430018 -0.45526,24.479998 -3.35817,21.82165 -12.99028,40.94726 -28.36516,56.32215 -15.75148,15.75148 -35.83465,25.57692 -58.24215,28.49425 -4.65099,0.60553 -15.70684,0.85026 -20.32,0.44979 z m 11.71669,-16.73566 c 12.57167,-10.78936 22.91899,-24.88649 29.39428,-40.04663 1.40807,-3.29663 4.00903,-10.47772 4.00903,-11.0687 0,-0.15052 -1.84909,0.93112 -4.10909,2.40364 -15.5104,10.10591 -32.33005,18.23798 -49.49091,23.92818 -3.696,1.22552 -6.771738,2.27953 -6.834973,2.34224 -0.192822,0.19123 3.414793,5.15527 6.480293,8.91682 3.38633,4.15524 9.70076,10.5906 13.79468,14.05889 1.584,1.34193 2.96851,2.44328 3.07669,2.44745 0.10819,0.004 1.76419,-1.33768 3.68,-2.98189 z m -25.838626,-0.13053 c -4.045824,-4.27991 -10.139779,-12.18122 -13.138317,-17.03488 -0.921558,-1.4917 -1.539142,-2.18643 -1.859744,-2.09206 -2.096659,0.61718 -15.117142,2.40694 -17.510445,2.40694 -0.753254,0 -1.369555,0.14227 -1.369555,0.31615 0,0.48021 4.53039,3.99351 8.48,6.5762 7.567245,4.94829 16.28664,8.87124 25.12,11.30176 2.00972,0.55298 2.04042,0.39022 0.278061,-1.47411 z m 47.207916,0.72358 c 24.95111,-7.56302 45.50369,-26.16098 55.44429,-50.17135 3.18504,-7.6931 5.38947,-16.44934 6.2111,-24.67112 0.43233,-4.32615 0.23854,-16.748401 -0.31264,-20.041108 -0.78579,-4.69423 -0.26594,-4.733059 -4.02547,0.300669 -6.76297,9.055099 -16.46334,19.456609 -25.22012,27.043019 -3.99443,3.46056 -4.04847,3.52555 -4.39092,5.28 -2.52077,12.91454 -5.85103,22.96531 -11.03314,33.29813 -4.65451,9.28084 -11.07986,18.83354 -17.40329,25.87383 -2.89044,3.21812 -3.65927,4.20435 -3.27757,4.20435 0.17854,0 1.98203,-0.50239 4.00776,-1.11642 z M 72.068736,142.27399 c -1.405059,-4.19462 -3.185101,-10.84187 -4.097609,-15.3018 l -0.200877,-0.98179 -3.90736,0.5782 c -6.449146,0.95434 -14.419245,1.54164 -20.947357,1.54357 -3.388,9.6e-4 -6.16,0.0578 -6.16,0.12625 0,0.0684 0.57383,1.7886 1.275174,3.82258 1.339488,3.88465 3.676112,9.40668 4.897066,11.57299 l 0.721421,1.28 3.513171,0.71031 c 5.56111,1.12437 11.25913,1.61477 19.213885,1.65363 l 7.38072,0.0361 z m 27.566797,1.22576 c 13.219397,-3.06252 25.261877,-7.36688 38.079997,-13.61096 8.37146,-4.07799 13.08804,-6.78945 19.0909,-10.97495 l 4.69089,-3.27074 0.26781,-2.80456 c 0.64452,-6.74936 0.20596,-18.615348 -0.95861,-25.936916 l -0.37099,-2.332371 -3.52,2.623757 c -15.9218,11.867872 -36.3625,22.81217 -55.74617,29.84744 -5.420214,1.96726 -15.334521,5.03419 -19.212022,5.94312 -1.470451,0.34469 -1.659104,0.47862 -1.523978,1.0819 0.08482,0.37869 0.50553,2.27252 0.934915,4.20852 0.982445,4.42962 2.654064,9.93987 4.33786,14.2991 l 1.303273,3.3741 4.233063,-0.74185 c 2.328185,-0.40802 6.105062,-1.17553 8.393062,-1.70559 z M 41.804634,115.79019 c 5.683798,-0.58372 14.825504,-2.08469 20.070899,-3.29543 l 3.84,-0.88634 0.204966,-9.42721 c 0.255226,-11.739026 1.068989,-18.21349 3.517655,-27.987218 4.829251,-19.275737 15.085833,-38.347747 28.265811,-52.56 1.183322,-1.276 2.010118,-2.32 1.837328,-2.32 -0.17279,0 -1.590275,0.365173 -3.149962,0.811495 C 82.321456,24.151739 69.111555,31.981883 58.66921,42.485209 42.940525,58.305743 34.167738,78.492152 33.346257,100.75399 c -0.180873,4.9016 0.206376,12.64124 0.740511,14.8 0.221242,0.89417 1.060826,0.91987 7.717866,0.2362 z M 84.915533,105.40161 C 97.615143,100.51858 109.42607,94.379429 121.55553,86.356651 131.27563,79.927499 139.5,73.29403 147.74934,65.229717 l 5.24185,-5.124279 -1.42139,-3.03572 c -3.22209,-6.881559 -8.31692,-14.987667 -13.55546,-21.567361 -4.31371,-5.418106 -12.15506,-13.229929 -17.17598,-17.111319 -0.49337,-0.381391 -0.86452,-0.171906 -3.24084,1.829174 -7.83319,6.59627 -15.08343,14.675934 -20.579491,22.933781 C 85.069834,61.106162 78.692087,81.673723 78.67896,102.29555 l -0.0034,5.38157 0.72,-0.21495 c 0.396,-0.11822 2.88,-1.04548 5.52,-2.06056 z m 96.547507,-6.647618 c 7.76947,-7.818506 13.09426,-14.029757 18.76061,-21.883853 l 1.99398,-2.763849 -0.93925,-2.356151 c -2.19395,-5.503651 -5.2679,-11.350787 -8.50089,-16.170044 l -1.33116,-1.984288 -1.94797,2.46312 c -3.58261,4.530057 -8.93094,10.414147 -13.50849,14.861692 l -4.53544,4.406627 0.32098,1.193373 c 1.28016,4.759504 2.49273,13.627255 2.95268,21.593373 0.21086,3.651998 0.47095,6.639998 0.57798,6.639998 0.10703,0 2.87767,-2.7 6.15697,-5.999998 z M 165.07553,44.510051 c 3.21148,-4.760122 6.52557,-10.654001 6.24549,-11.107176 -0.10888,-0.176176 -1.6614,-1.285264 -3.45005,-2.464637 -4.11155,-2.71103 -11.15099,-6.338725 -15.91544,-8.201849 -3.94754,-1.543673 -10.50635,-3.582717 -10.74774,-3.341326 -0.0808,0.0808 1.01353,1.427608 2.43182,2.992916 5.65792,6.244373 12.25278,15.546823 16.15592,22.788888 1.056,1.95935 2.064,3.517987 2.24,3.463638 0.176,-0.05435 1.544,-1.913053 3.04,-4.130454 z M 274.62647,199.44367 c -6.94709,-1.16065 -11.66522,-6.29401 -12.17725,-13.24895 -0.41835,-5.68258 1.98764,-10.57753 6.69441,-13.61966 2.64325,-1.70841 5.23517,-2.32671 9.10256,-2.17137 2.82169,0.11333 3.41114,0.24842 5.55306,1.27263 2.94512,1.40827 5.35225,3.44434 4.92713,4.16759 -0.15997,0.27215 -1.02373,1.31106 -1.91948,2.30869 l -1.62862,1.81386 -1.13942,-1.07461 c -1.74042,-1.64142 -3.29435,-2.25928 -6.03079,-2.39789 -3.06493,-0.15526 -5.18776,0.66292 -6.96827,2.68569 -1.47486,1.67552 -1.96525,3.19872 -1.96114,6.09147 0.007,4.75959 2.92215,7.99471 7.53854,8.36527 2.61193,0.20966 4.92703,-0.56384 6.76881,-2.26153 l 1.40089,-1.29129 2.08393,2.05521 2.08394,2.05521 -1.69962,1.57377 c -2.01192,1.86294 -4.8849,3.28645 -7.49576,3.71402 -2.14825,0.3518 -2.82932,0.34674 -5.13292,-0.0381 z m 36.68906,0.006 c -5.10611,-0.75271 -9.16839,-3.69352 -11.25171,-8.14547 -3.80998,-8.14176 0.29672,-17.72176 8.72082,-20.34363 2.62073,-0.81566 6.92105,-0.81566 9.54178,0 10.78537,3.35678 13.78457,17.20776 5.39029,24.89372 -3.21304,2.94195 -7.80421,4.27303 -12.40118,3.59538 z m 4.87546,-5.79578 c 0.69834,-0.20922 1.95549,-0.99698 2.79367,-1.75058 4.83135,-4.34378 3.71129,-12.66586 -2.0668,-15.35658 -5.53608,-2.57802 -11.66956,1.74437 -11.6792,8.23058 -0.004,2.65224 0.66971,4.64632 2.15644,6.38323 2.12515,2.48276 5.57102,3.45955 8.79589,2.49335 z m 180.77177,5.81463 c -7.49062,-1.10366 -12.52723,-6.97075 -12.52723,-14.59313 0,-5.9458 2.86682,-10.49687 8.30445,-13.18336 2.38054,-1.17612 2.39126,-1.17804 6.57712,-1.17804 4.18694,0 4.19597,0.002 6.5784,1.17935 3.06429,1.51479 5.42057,3.85847 6.9183,6.88124 1.91216,3.85928 1.86621,9.04323 -0.11609,13.09157 -0.97232,1.98575 -3.21245,4.45916 -5.14154,5.67693 -2.79334,1.76336 -7.13555,2.63444 -10.59341,2.12512 z m 5.98157,-6.26862 c 5.30778,-2.64498 6.45354,-10.55915 2.16077,-14.92508 -1.57891,-1.60583 -2.81405,-2.19803 -4.99715,-2.39599 -2.78951,-0.25294 -4.72474,0.52155 -6.69796,2.68057 -1.95401,2.13802 -2.73907,4.39979 -2.48806,7.1682 0.58006,6.39688 6.63206,10.1584 12.0224,7.4723 z m 232.93549,6.28055 c -3.33802,-0.59871 -6.52685,-2.10753 -8.62736,-4.0821 l -0.86304,-0.81131 1.80688,-2.19637 c 0.99379,-1.208 1.84877,-2.19636 1.89993,-2.19636 0.0512,0 1.01533,0.6314 2.14253,1.4031 2.60858,1.7859 4.89005,2.55933 6.96224,2.36022 2.4872,-0.23899 3.73194,-1.88629 2.95507,-3.91078 -0.29142,-0.75941 -2.20732,-1.63843 -5.26828,-2.41711 -5.23367,-1.33139 -8.16746,-3.30197 -8.91303,-5.98668 -0.43603,-1.57015 -0.42781,-4.07594 0.0186,-5.68875 0.50426,-1.82152 2.85607,-4.05503 5.17408,-4.91384 4.20042,-1.55623 11.15607,-0.40891 14.55162,2.40024 l 0.7175,0.5936 -1.43245,2.04523 c -0.78784,1.12488 -1.49731,2.11008 -1.57657,2.18934 -0.0793,0.0793 -1.22205,-0.38865 -2.53955,-1.03979 -4.13648,-2.04435 -8.05629,-1.77584 -8.65072,0.59256 -0.50669,2.01878 0.7464,2.99745 5.39817,4.21604 6.70275,1.75585 9.2368,4.16241 9.25312,8.78753 0.004,1.149 -0.17933,2.62879 -0.40749,3.28842 -0.59363,1.7163 -2.92364,3.91422 -4.95526,4.67434 -2.01661,0.75452 -5.52742,1.07247 -7.64608,0.69247 z m 32.96,0 c -3.33802,-0.59871 -6.52685,-2.10753 -8.62736,-4.0821 l -0.86304,-0.81131 1.80688,-2.19637 c 0.99379,-1.208 1.84877,-2.19636 1.89993,-2.19636 0.0512,0 1.01533,0.6314 2.14253,1.4031 2.60858,1.7859 4.89005,2.55933 6.96224,2.36022 2.4872,-0.23899 3.73194,-1.88629 2.95507,-3.91078 -0.29142,-0.75941 -2.20732,-1.63843 -5.26828,-2.41711 -5.23367,-1.33139 -8.16746,-3.30197 -8.91303,-5.98668 -0.43603,-1.57015 -0.42781,-4.07594 0.0186,-5.68875 0.50426,-1.82152 2.85607,-4.05503 5.17408,-4.91384 4.20042,-1.55623 11.15607,-0.40891 14.55162,2.40024 l 0.7175,0.5936 -1.43245,2.04523 c -0.78784,1.12488 -1.49731,2.11008 -1.57657,2.18934 -0.0793,0.0793 -1.22205,-0.38865 -2.53955,-1.03979 -4.13648,-2.04435 -8.05629,-1.77584 -8.65072,0.59256 -0.50669,2.01878 0.7464,2.99745 5.39817,4.21604 6.70275,1.75585 9.2368,4.16241 9.25312,8.78753 0.004,1.149 -0.17933,2.62879 -0.40749,3.28842 -0.59363,1.7163 -2.92364,3.91422 -4.95526,4.67434 -2.01661,0.75452 -5.52742,1.07247 -7.64608,0.69247 z m 69.51571,-6e-5 c -6.35622,-1.20467 -10.91501,-5.85102 -11.8583,-12.08608 -1.113,-7.35679 3.14259,-14.35782 9.99196,-16.43826 1.82615,-0.55467 2.79133,-0.64786 5.48138,-0.52924 3.71706,0.16392 5.84582,0.84569 8.31629,2.66342 l 1.53133,1.12673 -1.6409,2.37364 -1.6409,2.37364 -1.59996,-1.10059 c -2.02989,-1.3963 -3.7546,-1.86091 -6.19031,-1.66754 -3.08278,0.24473 -5.58144,1.9111 -7.07475,4.7182 -0.9055,1.70209 -0.84797,6.72971 0.097,8.48 0.8208,1.52027 2.39818,3.06618 3.94717,3.86841 1.37539,0.71233 5.29882,0.76629 7.2,0.099 l 1.28,-0.44925 0.0896,-4.0791 0.0896,-4.07909 h 3.19043 3.19043 v 5.28066 5.28066 l -1.95056,1.43592 c -1.1007,0.81028 -2.82074,1.7047 -3.94774,2.05279 -2.36682,0.73104 -6.4841,1.05844 -8.5017,0.67605 z m 36.70909,-0.0438 c -2.5489,-0.36072 -4.40263,-1.24991 -6.29408,-3.01915 -1.98624,-1.8579 -3.13971,-4.22817 -3.5337,-7.26135 -0.16585,-1.27695 -0.30598,-5.88573 -0.31142,-10.24173 l -0.01,-7.92 h 3.17773 3.17773 l 0.10428,9.04 c 0.0906,7.8545 0.17946,9.20729 0.67754,10.31563 0.78355,1.74358 1.66995,2.6131 3.2975,3.23466 2.75328,1.05148 5.4346,-0.0577 6.93924,-2.87054 0.67308,-1.25824 0.71075,-1.74857 0.80796,-10.51975 l 0.10196,-9.2 h 3.20614 3.20614 l -0.1239,9.68 c -0.11651,9.10435 -0.16637,9.78742 -0.8385,11.48634 -0.39305,0.99349 -1.12476,2.37256 -1.62608,3.06459 -2.29123,3.16295 -7.18611,4.8867 -11.95865,4.2113 z m 152.41088,-0.008 c -3.6375,-0.60088 -7.4446,-3.06169 -9.6132,-6.21365 -1.4874,-2.16188 -2.2268,-4.85209 -2.2268,-8.10219 0,-6.21411 2.7421,-10.67214 8.234,-13.38637 2.2351,-1.10463 2.687,-1.20942 5.6954,-1.32079 4.9093,-0.18173 8.5247,1.066 11.3001,3.89989 l 1.3013,1.32867 -1.9393,2.16665 -1.9392,2.16666 -1.2823,-1.15849 c -1.8804,-1.69884 -3.5665,-2.35956 -6.0423,-2.36779 -1.1617,-0.004 -2.6017,0.15981 -3.2,0.36373 -4.4259,1.50855 -6.6541,6.17396 -5.2594,11.01224 0.7081,2.45677 3.0926,4.9165 5.3895,5.55957 3.052,0.85451 6.7553,-0.0897 9.1033,-2.32092 l 1.0411,-0.98936 1.3057,1.26386 c 0.7181,0.69511 1.6094,1.68503 1.9805,2.1998 l 0.6749,0.93595 -1.5369,1.35237 c -2.1164,1.86237 -4.2554,2.96211 -6.8167,3.50485 -2.4165,0.51206 -3.5866,0.53204 -6.1697,0.10532 z m 67.2,0.009 c -1.9819,-0.31728 -6.3139,-2.35956 -7.9857,-3.76476 l -1.1056,-0.92934 1.3478,-1.74701 c 0.7413,-0.96086 1.6258,-1.99855 1.9655,-2.30598 0.5922,-0.53596 0.6678,-0.519 1.8378,0.41241 4.7417,3.77469 10.9802,3.82591 10.9802,0.0901 0,-1.43424 -1.2866,-2.27346 -5.2806,-3.44439 -6.7974,-1.99279 -8.7616,-3.50163 -9.4573,-7.26459 -0.7279,-3.93783 0.8536,-7.22884 4.3282,-9.00658 1.773,-0.90715 2.0988,-0.96332 5.5863,-0.96332 2.7228,0 4.1694,0.15417 5.4634,0.58226 1.9235,0.63636 5.12,2.42821 5.12,2.87009 0,0.15243 -0.6781,1.2624 -1.5068,2.46661 l -1.5068,2.18947 -0.8564,-0.60983 c -1.8485,-1.31621 -3.9228,-1.98621 -6.2624,-2.02278 -2.0235,-0.0316 -2.3913,0.0568 -3.1352,0.75418 -0.6547,0.61375 -0.8215,1.03983 -0.7475,1.90971 0.128,1.50674 1.2951,2.25194 5.2416,3.34676 7.0361,1.95193 9.4063,4.20747 9.4117,8.9564 0.01,4.46072 -2.8633,7.57038 -7.8298,8.4885 -2.1354,0.39473 -3.1016,0.39337 -5.6084,-0.008 z m -753.70663,-0.17693 c -0.11734,-0.11734 -0.21334,-6.53625 -0.21334,-14.26426 v -14.05092 l 8.08,0.11651 c 6.80294,0.0981 8.3329,0.20828 9.68,0.69715 3.7335,1.3549 5.3537,3.85509 5.39299,8.32211 0.0294,3.35347 -0.68496,5.48942 -2.41491,7.21935 -0.71629,0.71629 -1.64336,1.38794 -2.06019,1.49255 -0.41683,0.10463 -0.75789,0.2598 -0.75789,0.34484 0,0.0851 1.59178,2.40944 3.53731,5.16531 l 3.53731,5.01069 -3.59776,0.091 c -1.97875,0.0501 -3.75689,0.03 -3.95145,-0.0447 -0.19453,-0.0746 -1.75981,-2.16762 -3.4784,-4.65104 l -3.12474,-4.51526 h -2.22112 -2.22115 v 4.64 4.64 h -2.98666 c -1.64268,0 -3.08268,-0.096 -3.2,-0.21333 z m 13.9633,-14.84809 c 1.63184,-0.45315 2.46058,-1.82631 2.46218,-4.07962 0.002,-3.28468 -1.02944,-3.89896 -6.54855,-3.89896 h -3.69027 v 4.16 4.16 l 3.28,-0.002 c 1.804,-9.6e-4 3.82749,-0.15382 4.49664,-0.33964 z m 22.62336,0.80875 v -14.27584 l 8.08,0.11508 c 7.48829,0.10665 8.21293,0.16801 9.89514,0.83794 2.07292,0.82553 3.8048,2.53785 4.46406,4.41366 0.24339,0.69252 0.43741,2.51576 0.43862,4.12183 0.003,2.56241 -0.10368,3.09172 -0.95782,4.8 -0.72272,1.44546 -1.33139,2.15727 -2.46262,2.88 -0.82644,0.528 -1.51044,1.08521 -1.52,1.23824 -0.01,0.15303 1.49462,2.40383 3.34262,5.00176 1.848,2.59793 3.36,4.81273 3.36,4.92176 0,0.10903 -1.69984,0.19824 -3.77744,0.19824 h -3.77741 l -3.19088,-4.56 -3.19085,-4.56 -2.14284,-0.0944 -2.14282,-0.0944 -0.0889,4.57442 -0.0889,4.57442 -3.12,0.0916 -3.12,0.0916 z m 14.05002,-0.88539 c 2.13302,-0.74739 3.13292,-3.42302 2.15443,-5.7649 -0.71981,-1.72274 -1.93616,-2.13704 -6.27418,-2.13704 h -3.53027 v 4.16 4.16 l 3.28,-0.018 c 1.804,-0.01 3.77053,-0.18993 4.37002,-0.4 z m 22.42998,0.90243 v -14.24437 h 10.24 10.24 v 2.72 2.72 h -7.04 -7.04 v 3.04 3.04 h 6.4 6.4 v 2.72 2.72 h -6.4 -6.4 v 2.88 2.88 h 7.37245 7.37248 l -0.0925,2.8 -0.0924,2.8 -10.48,0.0844 -10.48,0.0844 z m 33.6,0.0374 v -14.28177 h 6.70426 c 9.18604,0 11.82931,0.66556 15.16236,3.81783 2.14973,2.03311 3.3329,4.42493 3.81076,7.70354 0.93657,6.42576 -1.71076,12.4632 -6.53741,14.90904 -2.92599,1.48272 -4.79216,1.78357 -12.17997,1.96356 l -6.96,0.16957 z m 14.09946,7.92281 c 2.3439,-0.69607 4.20905,-2.56121 4.90512,-4.90514 1.38787,-4.6734 -0.20388,-9.15544 -3.8752,-10.91179 -1.22468,-0.58589 -2.2466,-0.7612 -5.12938,-0.87992 l -3.6,-0.14826 v 8.68026 8.68027 h 2.98192 c 1.80995,0 3.66403,-0.20257 4.71754,-0.51542 z m 64.94054,-7.97725 v -14.27584 l 8.08,0.11508 c 7.48829,0.10665 8.21293,0.16801 9.89514,0.83794 3.60329,1.43499 5.30406,4.61992 4.98134,9.32828 -0.25341,3.69705 -1.7535,6.29412 -4.30781,7.45793 -0.40077,0.18261 -0.72867,0.45703 -0.72867,0.60984 0,0.15281 1.512,2.41618 3.36,5.02972 1.848,2.61355 3.36,4.84141 3.36,4.95081 0,0.1094 -1.70429,0.19891 -3.7873,0.19891 h -3.78726 l -3.17274,-4.62818 -3.1727,-4.62817 -2.1512,-0.0118 -2.15123,-0.0118 -0.0888,4.56 -0.0888,4.56 -3.12,0.0916 -3.12,0.0916 z m 14.93638,-1.3017 c 2.0232,-1.51068 2.20413,-5.25676 0.32144,-6.6554 -0.77939,-0.57899 -1.44371,-0.68467 -4.88,-0.77633 l -3.97782,-0.1061 v 4.21981 4.2198 l 3.81661,-0.1137 c 3.27405,-0.0976 3.94502,-0.20958 4.71977,-0.78808 z m 21.54362,1.31437 v -14.24 h 3.2 3.2 v 14.24 14.24 h -3.2 -3.2 z m 16.68963,13.98672 c 0.0607,-0.15155 2.83159,-6.56936 6.15754,-14.2618 l 6.04717,-13.98627 3.17036,0.0907 3.17037,0.0907 6.06247,14.01792 c 3.33436,7.70985 6.06246,14.08185 6.06246,14.16 0,0.0781 -1.4961,0.14208 -3.32467,0.14208 h -3.32467 l -1.36935,-3.20686 -1.36931,-3.20686 -5.93718,0.0869 -5.93722,0.0869 -1.33008,3.04 -1.33008,3.04 -3.42909,0.0911 c -1.88601,0.0501 -3.37942,-0.0328 -3.31872,-0.18441 z m 18.77703,-11.85527 c -1.46832,-3.69677 -3.33028,-7.67391 -3.50704,-7.49101 -0.21146,0.21885 -2.52551,5.3327 -3.18541,7.03956 l -0.27837,0.72 h 3.53875 c 1.94631,0 3.49075,-0.12085 3.43207,-0.26855 z m 40.05334,-2.08704 v -14.28441 l 6.64,0.005 c 7.46624,0.005 9.53706,0.32987 12.63293,1.97995 3.01014,1.6044 5.19017,4.51442 5.99465,8.00207 0.45764,1.98397 0.39623,6.54512 -0.11395,8.46119 -0.96813,3.63597 -3.33529,6.61217 -6.46358,8.12655 -2.8041,1.35745 -4.52263,1.6229 -11.73005,1.81185 l -6.96,0.18247 v -14.2844 z m 15.38022,7.26631 c 2.5802,-1.45133 3.57588,-3.21492 3.75636,-6.65324 0.16886,-3.21738 -0.42813,-5.33377 -1.94496,-6.89486 -1.71738,-1.7675 -3.42967,-2.33733 -7.51162,-2.49984 l -3.6,-0.14331 v 8.7197 8.71971 l 3.78022,-0.13478 c 3.49636,-0.12465 3.91085,-0.20826 5.52,-1.11338 z m 33.57978,6.7872 c 0,-0.0782 2.7281,-6.45015 6.06246,-14.16 l 6.06247,-14.01792 3.17037,-0.0907 3.17036,-0.0907 6.04717,13.98627 c 3.32595,7.69244 6.09683,14.11025 6.15754,14.2618 0.0607,0.15156 -1.43271,0.23454 -3.31872,0.18441 l -3.42909,-0.0911 -1.33008,-3.04 -1.33008,-3.04 -5.93722,-0.0869 -5.93718,-0.0869 -1.36931,3.20686 -1.36935,3.20686 h -3.32467 c -1.82857,0 -3.32467,-0.0639 -3.32467,-0.14208 z m 18.44749,-12.73792 c -0.24263,-0.572 -1.00055,-2.37055 -1.68429,-3.99678 -0.68378,-1.62622 -1.32211,-2.95822 -1.41856,-2.96 -0.13187,-0.003 -2.38221,5.03661 -3.4513,7.72823 -0.0587,0.1477 1.49127,0.26855 3.44429,0.26855 h 3.55095 z m 88.32585,12.66667 c -0.11734,-0.11734 -0.21334,-6.52534 -0.21334,-14.24 v -14.02667 h 10.4 10.4 v 2.72 2.72 h -7.212 -7.21203 l 0.092,2.96 0.092,2.96 6.32,0.0868 6.32,0.0868 v 2.71323 2.71324 h -6.4 -6.4 v 2.88 2.88 h 7.36 7.36 v 2.88 2.88 h -10.34666 c -5.69068,0 -10.44268,-0.096 -10.56,-0.21333 z m 108.58666,-14.02667 v -14.24 h 7.18426 c 4.02473,0 7.93001,0.15599 8.88,0.35469 3.5144,0.73511 5.7232,2.5667 6.65795,5.52103 0.60425,1.90973 0.27737,6.774 -0.56413,8.39458 -0.73443,1.4144 -2.51162,3.14487 -3.57706,3.48303 -0.36355,0.11539 -0.66102,0.31627 -0.66102,0.44639 0,0.13013 1.57622,2.46042 3.50272,5.17844 l 3.50275,4.94184 -3.56317,0.091 c -1.95974,0.0501 -3.73945,0.0234 -3.95491,-0.0593 -0.21545,-0.0827 -1.80374,-2.17565 -3.5295,-4.65105 l -3.13779,-4.50065 h -2.17005 -2.17005 v 4.64 4.64 h -3.2 -3.2 z m 14.43056,-1.00956 c 1.51098,-0.60457 2.20944,-1.84543 2.20944,-3.92511 0,-3.12725 -1.24659,-3.86533 -6.52835,-3.86533 h -3.71165 v 4.16 4.16 h 3.35354 c 2.37388,0 3.74012,-0.15469 4.67702,-0.52956 z m 18.61654,14.84956 c 0.24471,-0.62912 11.31738,-26.21721 11.77018,-27.2 0.40173,-0.87195 0.43395,-0.88 3.51984,-0.88 2.19254,0 3.16195,0.1184 3.27498,0.4 0.0883,0.22 2.78204,6.448 5.98601,13.84 3.204,7.392 5.90048,13.62505 5.99219,13.85122 0.13101,0.32298 -0.56809,0.39164 -3.25788,0.32 l -3.42468,-0.0912 -1.17385,-2.72 c -0.64563,-1.496 -1.2904,-2.9 -1.43277,-3.12 -0.19117,-0.29535 -1.75069,-0.4 -5.96083,-0.4 -4.18957,0 -5.7808,0.10609 -5.99936,0.4 -0.16359,0.22 -0.84784,1.66 -1.52055,3.2 l -1.2231,2.8 h -3.3529 c -2.55193,0 -3.31568,-0.0956 -3.19728,-0.4 z m 18.36039,-12.48 c -0.24263,-0.572 -1.00055,-2.37055 -1.68429,-3.99678 -0.68378,-1.62622 -1.3152,-2.9556 -1.4032,-2.95416 -0.12102,0.002 -2.75632,5.8656 -3.46666,7.71346 -0.0587,0.15262 1.49127,0.27748 3.44429,0.27748 h 3.55095 z m 22.51251,-1.37159 v -14.25158 l 3.09584,0.0916 3.09584,0.0916 6.74416,8.82766 6.74416,8.82766 0.085,-8.90766 0.085,-8.90766 h 3.195 3.19497 v 14.24 14.24 l -3.1199,-0.009 -3.12002,-0.009 -6.72,-8.86268 -6.72,-8.86268 -0.0851,8.8713 -0.0851,8.8713 h -3.19491 -3.19494 v -14.25159 z m 77.11997,0.016 v -14.24437 h 10.24 10.24 v 2.72 2.72 h -7.04 -7.04 v 3.04 3.04 h 6.4129 6.413 l -0.093,2.64 -0.093,2.64 -6.32,0.0868 -6.32,0.0868 v 2.86723 2.86722 l 7.28,0.086 7.28,0.086 v 2.72 2.72 l -10.48,0.0844 -10.48,0.0844 z m -379.37008,-4.54623 c 1.53446,-3.81919 1.54937,-3.88459 1.00902,-4.42494 -1.64182,-1.64184 -0.42605,-5.05698 1.88109,-5.28395 1.5663,-0.15409 2.37216,0.0702 3.1896,0.88763 0.77792,0.77789 0.86154,1.06205 0.74086,2.51717 -0.11248,1.35648 -0.44182,2.0768 -1.90342,4.16311 l -1.76742,2.52283 -1.69101,0.0982 c -1.52224,0.0884 -1.66784,0.0404 -1.45872,-0.48 z M 563.79511,146.0173 c -8.75593,-0.60906 -16.15971,-2.53964 -23.91155,-6.23507 -7.30048,-3.48025 -12.83129,-7.4493 -18.35552,-13.17233 -10.21561,-10.58331 -15.99651,-23.72091 -16.90141,-38.409991 -0.86774,-14.085895 2.48631,-27.161178 9.7568,-38.035532 10.53629,-15.75899 26.79924,-25.365619 46.84048,-27.669 4.26509,-0.490193 15.07383,-0.219158 19.21162,0.48174 36.19155,6.130456 58.59686,38.306891 51.48422,73.936875 -2.456,12.303068 -9.70268,24.771508 -19.27331,33.161098 -13.15171,11.52876 -30.57203,17.21373 -48.85133,15.94221 z m 12.0385,-21.26992 c 8.35933,-1.43132 15.33136,-5.09379 21.58205,-11.33719 6.00054,-5.99352 9.57581,-12.62427 11.39657,-21.136198 0.82506,-3.856979 0.81488,-13.13561 -0.0186,-16.96 -2.84892,-13.072787 -11.74674,-24.061762 -23.6317,-29.18566 -17.57939,-7.578884 -38.43971,-1.696073 -49.59286,13.98566 -9.42957,13.258298 -9.96695,31.737968 -1.3233,45.505698 6.4089,10.2082 16.36522,17.02446 27.9247,19.11773 3.3225,0.60165 10.17831,0.60665 13.66314,0.01 z m 355.93418,21.28251 c -15.02957,-0.97465 -28.92,-6.92255 -39.84935,-17.06352 -8.83235,-8.19527 -15.6624,-20.41795 -18.00032,-32.212378 -3.52499,-17.783008 0.12199,-34.69008 10.53088,-48.820098 10.35056,-14.050833 27.09143,-23.385191 45.58653,-25.418093 6.91046,-0.759569 16.30445,-0.234229 23.43434,1.310518 10.99254,2.381627 23.44054,8.362911 30.3886,14.601798 l 1.34295,1.205876 -5.93242,7.68 c -3.26281,4.224 -6.19238,8.035581 -6.51014,8.470182 l -0.57773,0.790183 -2.3528,-1.945223 c -10.1161,-8.36367 -23.46662,-12.702886 -35.76317,-11.623817 -14.52144,1.274307 -27.1936,9.815139 -33.61181,22.653797 -4.42518,8.851856 -5.34857,20.208189 -2.45219,30.157741 3.69875,12.705874 14.43584,23.583874 27.23437,27.591754 4.59686,1.43951 8.60118,1.92833 14.19507,1.73283 7.46509,-0.2609 13.18928,-1.74493 20.76208,-5.3827 l 3.91715,-1.8817 0.0829,-16.72153 0.0828,-16.721518 10.00211,-0.08456 10.00211,-0.08456 -0.0821,23.120288 -0.0821,23.12029 -2.24,1.54535 c -13.8615,9.56291 -33.54192,15.05336 -50.10774,13.97909 z m 136.18771,0.11245 c -9.6492,-0.51513 -18.1898,-2.67007 -26.24,-6.62079 -16.6682,-8.18009 -28.5844,-22.58707 -32.943,-39.828998 -3.6339,-14.374768 -2.1348,-29.939846 4.1158,-42.734028 8.7364,-17.882368 25.4204,-30.131584 46.1072,-33.851379 3.6623,-0.658533 5.1363,-0.746722 12.32,-0.737101 6.261,0.0084 8.9047,0.140111 11.36,0.566032 32.4987,5.63755 54.1717,31.707015 52.8559,63.577916 -0.5895,14.278428 -5.8294,27.523608 -15.1027,38.175938 -8.5958,9.87404 -21.5531,17.34682 -34.7247,20.0265 -5.3655,1.09157 -12.8093,1.6896 -17.7485,1.42591 z m 10.2781,-21.39734 c 14.5295,-2.49999 26.8788,-13.20916 31.6148,-27.416179 2.5355,-7.605927 2.7667,-16.663341 0.6291,-24.655207 -3.963,-14.817544 -16.4724,-26.337887 -31.7437,-29.234005 -3.2703,-0.620189 -10.3329,-0.699702 -13.6583,-0.15377 -8.5503,1.4037 -16.4143,5.425984 -22.5778,11.548154 -6.0802,6.039407 -10.2111,14.006482 -11.5316,22.239999 -0.6501,4.053062 -0.5015,11.230438 0.3129,15.114774 3.5186,16.783794 16.5834,29.498314 33.4765,32.578974 3.1594,0.57614 10.0652,0.56449 13.4781,-0.0228 z M 262.03553,84.113992 v -60.32 h 27.97064 c 23.71223,0 28.57192,0.07755 31.92002,0.509372 17.5542,2.26407 29.68166,10.716673 34.75507,24.223643 4.09865,10.911817 3.74083,25.719788 -0.8808,36.451257 -3.35341,7.786682 -9.46346,14.278768 -17.19824,18.273626 -5.32944,2.75255 -12.09322,4.60555 -19.42227,5.32091 -1.92256,0.18765 -10.31056,0.34119 -18.64,0.34119 h -15.14442 v 17.76 17.76 h -11.68 -11.68 z m 56.19808,3.826176 c 6.00048,-1.042672 10.36694,-3.077344 13.70496,-6.386224 2.18154,-2.16249 3.60726,-4.633613 4.70787,-8.159952 0.65959,-2.113245 0.74656,-3.011744 0.72803,-7.52 -0.0192,-4.659754 -0.098,-5.352378 -0.87657,-7.70509 -1.70423,-5.149626 -4.90906,-8.746864 -9.9408,-11.158007 -5.76462,-2.7623 -8.18838,-3.04278 -26.36157,-3.050563 l -14.8,-0.0063 v 22.239999 22.24 h 14.99808 c 12.07719,0 15.55155,-0.09617 17.84,-0.493824 z m 65.72192,-3.841302 V 23.763739 l 30.16,0.119798 c 29.36416,0.116637 30.25712,0.138165 33.84,0.815874 5.65562,1.069762 10.02682,2.456512 14.27779,4.529569 11.78163,5.745524 18.59347,15.203387 20.63098,28.645013 0.91331,6.025023 0.31133,15.610965 -1.35645,21.599999 -2.84362,10.211619 -9.67718,18.608954 -19.10691,23.479208 -1.93536,0.99959 -2.86378,1.64867 -2.71706,1.8996 0.12256,0.20966 6.02983,9.13958 13.12723,19.84428 7.09744,10.7047 12.90442,19.5263 12.90442,19.60355 0,0.0772 -5.92246,0.10286 -13.16102,0.0569 l -13.16103,-0.0835 -10.29043,-17.6 -10.29046,-17.6 -15.90855,-0.083 -15.90851,-0.083 v 17.76297 17.76299 h -11.52 -11.52 z m 60.91869,3.291875 c 4.77481,-1.299277 7.60083,-2.829447 10.47347,-5.670951 2.83578,-2.805001 4.48458,-5.805971 5.27766,-9.605798 0.649,-3.109354 0.649,-9.050646 0,-12.16 -1.39584,-6.68765 -5.98774,-11.70981 -12.90172,-14.110636 -4.73693,-1.644857 -4.93079,-1.659779 -23.3681,-1.798521 l -17.36,-0.130634 v 22.277551 22.277555 l 17.36,-0.109526 17.36,-0.109527 z m 235.40131,6.963251 V 44.273993 h -18.88 -18.88 v -10.240001 -10.24 h 49.28 49.28 v 10.24 10.240001 h -18.72 -18.72 v 50.079999 50.079998 h -11.68 -11.68 z m 82.56,-10.24 v -60.32 h 44.32454 44.32458 l -0.0846,10 -0.0845,10.000001 -32.72,0.08151 -32.72,0.08151 v 14.878489 14.87849 h 29.44 29.44 v 10.08 10.08 h -29.44002 -29.44 v 15.199998 15.2 h 33.76 33.76 v 10.08 10.08 h -45.28 -45.28 z"
       id="path274" />
  </g>
</svg>
